<svg xmlns="http://www.w3.org/2000/svg" xmlns:xlink="http://www.w3.org/1999/xlink" width="150" zoomAndPan="magnify" viewBox="0 0 112.5 112.499997" height="150" preserveAspectRatio="xMidYMid meet" version="1.0"><defs><g/><clipPath id="df2cdee10e"><path d="M 10.15625 10.703125 L 100.90625 10.703125 L 100.90625 101.453125 L 10.15625 101.453125 Z M 10.15625 10.703125 " clip-rule="nonzero"/></clipPath><clipPath id="dc896dd761"><path d="M 13.472656 41.390625 L 26.371094 41.390625 L 26.371094 53.644531 L 13.472656 53.644531 Z M 13.472656 41.390625 " clip-rule="nonzero"/></clipPath><clipPath id="745b7b7ecc"><path d="M 85.066406 41.390625 L 97.96875 41.390625 L 97.96875 53.644531 L 85.066406 53.644531 Z M 85.066406 41.390625 " clip-rule="nonzero"/></clipPath><clipPath id="b8e8e08041"><path d="M 27.433594 33.609375 L 85.183594 33.609375 L 85.183594 78.609375 L 27.433594 78.609375 Z M 27.433594 33.609375 " clip-rule="nonzero"/></clipPath><clipPath id="1dedcdf0cb"><path d="M 75.5625 45.3125 C 76.089844 50.890625 73.878906 56.378906 69.617188 60.058594 C 75.117188 60.101562 80.5 61.628906 85.1875 64.484375 C 77.835938 71.386719 67.238281 73.515625 57.835938 70.152344 C 57.992188 70.082031 58.148438 70.015625 58.300781 69.945312 C 59.101562 69.519531 59.789062 69.039062 60.378906 68.519531 L 60.347656 68.511719 C 66.894531 71.011719 75.648438 69.367188 81.179688 65.101562 C 75.988281 62.226562 69.265625 61.238281 62.875 62.691406 C 68.964844 60.390625 71.808594 55.140625 72.421875 48.714844 C 68.34375 48.847656 64.628906 51.082031 62.632812 54.613281 C 63.664062 48.535156 69.414062 44.402344 75.558594 45.3125 Z M 30.042969 54.484375 C 32.542969 53.816406 35.121094 53.722656 37.339844 55.050781 C 34.984375 52.816406 31.542969 52.136719 28.5 53.285156 C 28.640625 56.949219 31.65625 59.855469 35.355469 59.882812 C 32.554688 59.144531 30.539062 57.3125 30.039062 54.480469 Z M 82.578125 54.484375 C 80.078125 53.816406 77.5 53.722656 75.28125 55.050781 C 77.636719 52.816406 81.078125 52.136719 84.121094 53.285156 C 83.980469 56.949219 80.964844 59.855469 77.265625 59.882812 C 80.066406 59.144531 82.082031 57.3125 82.585938 54.480469 Z M 42.640625 37.527344 C 45.078125 38.414062 47.230469 39.820312 48.269531 42.175781 C 47.644531 39.003906 45.238281 36.472656 42.082031 35.671875 C 40.066406 38.742188 40.835938 42.839844 43.835938 44.984375 C 41.980469 42.777344 41.402344 40.125 42.640625 37.527344 Z M 69.980469 37.527344 C 67.546875 38.414062 65.390625 39.820312 64.355469 42.175781 C 64.976562 39.003906 67.382812 36.472656 70.539062 35.671875 C 72.554688 38.742188 71.785156 42.839844 68.785156 44.984375 C 70.640625 42.777344 71.222656 40.125 69.980469 37.527344 Z M 41.351562 76.222656 C 45.839844 76.550781 50.304688 75.367188 54.03125 72.863281 C 50.5 77.597656 44.375 79.652344 38.664062 78.019531 C 39.300781 75.679688 40.792969 73.664062 42.859375 72.371094 C 43.597656 72.441406 44.347656 72.457031 45.089844 72.410156 C 43.546875 73.359375 42.265625 74.664062 41.351562 76.222656 Z M 71.265625 76.222656 C 66.777344 76.550781 62.308594 75.367188 58.585938 72.863281 C 62.117188 77.597656 68.242188 79.652344 73.953125 78.019531 C 73.320312 75.679688 71.824219 73.664062 69.757812 72.371094 C 69.019531 72.441406 68.269531 72.457031 67.527344 72.410156 C 69.070312 73.359375 70.351562 74.664062 71.265625 76.222656 Z M 56.429688 41.546875 C 57.75 41.546875 58.824219 42.605469 58.824219 43.921875 C 58.824219 45.234375 57.75 46.300781 56.429688 46.300781 C 55.105469 46.300781 54.03125 45.234375 54.03125 43.921875 C 54.03125 42.613281 55.101562 41.546875 56.429688 41.546875 Z M 37.054688 45.3125 C 36.527344 50.890625 38.738281 56.378906 43 60.058594 C 37.5 60.101562 32.117188 61.628906 27.429688 64.484375 C 35.324219 71.890625 46.957031 73.804688 56.835938 69.316406 C 65.089844 64.882812 60.722656 57.023438 55.871094 51.703125 C 50.539062 45.855469 49.035156 42.820312 56.421875 36.34375 C 62.421875 41.019531 62.875 46.320312 60.59375 50.476562 C 64.964844 46.414062 64.632812 39.765625 56.300781 33.640625 C 42.738281 46.285156 51.617188 47.703125 56.132812 56.988281 C 63.335938 70.652344 40.492188 73.167969 31.308594 65.140625 C 37.078125 62.105469 44.742188 61.515625 51.136719 62.96875 C 45.046875 60.667969 40.804688 55.144531 40.191406 48.714844 C 44.269531 48.847656 47.984375 51.082031 49.980469 54.613281 C 48.949219 48.535156 43.199219 44.402344 37.054688 45.3125 Z M 37.054688 45.3125 " clip-rule="evenodd"/></clipPath><linearGradient x1="75.069926" gradientTransform="matrix(0.459208, 0, 0, 0.45543, 27.433446, 33.639797)" y1="-2.762054" x2="69.333379" gradientUnits="userSpaceOnUse" y2="102.516796" id="1f23881db7"><stop stop-opacity="1" stop-color="rgb(100%, 8.599854%, 8.599854%)" offset="0"/><stop stop-opacity="1" stop-color="rgb(100%, 8.599854%, 8.599854%)" offset="0.0648968"/><stop stop-opacity="1" stop-color="rgb(100%, 8.599854%, 8.599854%)" offset="0.125"/><stop stop-opacity="1" stop-color="rgb(100%, 8.599854%, 8.599854%)" offset="0.1875"/><stop stop-opacity="1" stop-color="rgb(100%, 8.599854%, 8.599854%)" offset="0.203125"/><stop stop-opacity="1" stop-color="rgb(100%, 8.599854%, 8.599854%)" offset="0.210937"/><stop stop-opacity="1" stop-color="rgb(99.827576%, 8.599854%, 8.827209%)" offset="0.214844"/><stop stop-opacity="1" stop-color="rgb(99.655151%, 8.601379%, 9.056091%)" offset="0.21875"/><stop stop-opacity="1" stop-color="rgb(99.345398%, 8.602905%, 9.465027%)" offset="0.222656"/><stop stop-opacity="1" stop-color="rgb(99.035645%, 8.605957%, 9.875488%)" offset="0.226562"/><stop stop-opacity="1" stop-color="rgb(98.725891%, 8.607483%, 10.284424%)" offset="0.230469"/><stop stop-opacity="1" stop-color="rgb(98.417664%, 8.609009%, 10.694885%)" offset="0.234375"/><stop stop-opacity="1" stop-color="rgb(98.10791%, 8.610535%, 11.103821%)" offset="0.238281"/><stop stop-opacity="1" stop-color="rgb(97.798157%, 8.613586%, 11.514282%)" offset="0.242187"/><stop stop-opacity="1" stop-color="rgb(97.488403%, 8.615112%, 11.924744%)" offset="0.246094"/><stop stop-opacity="1" stop-color="rgb(97.180176%, 8.616638%, 12.335205%)" offset="0.25"/><stop stop-opacity="1" stop-color="rgb(96.870422%, 8.618164%, 12.744141%)" offset="0.253906"/><stop stop-opacity="1" stop-color="rgb(96.560669%, 8.621216%, 13.154602%)" offset="0.257812"/><stop stop-opacity="1" stop-color="rgb(96.250916%, 8.622742%, 13.563538%)" offset="0.261719"/><stop stop-opacity="1" stop-color="rgb(95.942688%, 8.624268%, 13.973999%)" offset="0.265625"/><stop stop-opacity="1" stop-color="rgb(95.632935%, 8.625793%, 14.38446%)" offset="0.269531"/><stop stop-opacity="1" stop-color="rgb(95.323181%, 8.628845%, 14.794922%)" offset="0.273438"/><stop stop-opacity="1" stop-color="rgb(95.013428%, 8.630371%, 15.203857%)" offset="0.277344"/><stop stop-opacity="1" stop-color="rgb(94.7052%, 8.633423%, 15.614319%)" offset="0.28125"/><stop stop-opacity="1" stop-color="rgb(94.395447%, 8.634949%, 16.023254%)" offset="0.285156"/><stop stop-opacity="1" stop-color="rgb(94.085693%, 8.636475%, 16.433716%)" offset="0.289062"/><stop stop-opacity="1" stop-color="rgb(93.77594%, 8.638%, 16.844177%)" offset="0.292969"/><stop stop-opacity="1" stop-color="rgb(93.466187%, 8.641052%, 17.254639%)" offset="0.296875"/><stop stop-opacity="1" stop-color="rgb(93.156433%, 8.642578%, 17.663574%)" offset="0.300781"/><stop stop-opacity="1" stop-color="rgb(92.848206%, 8.644104%, 18.074036%)" offset="0.304688"/><stop stop-opacity="1" stop-color="rgb(92.538452%, 8.64563%, 18.482971%)" offset="0.308594"/><stop stop-opacity="1" stop-color="rgb(92.228699%, 8.648682%, 18.893433%)" offset="0.3125"/><stop stop-opacity="1" stop-color="rgb(91.918945%, 8.650208%, 19.302368%)" offset="0.316406"/><stop stop-opacity="1" stop-color="rgb(91.610718%, 8.651733%, 19.71283%)" offset="0.320312"/><stop stop-opacity="1" stop-color="rgb(91.300964%, 8.653259%, 20.123291%)" offset="0.324219"/><stop stop-opacity="1" stop-color="rgb(90.991211%, 8.656311%, 20.533752%)" offset="0.328125"/><stop stop-opacity="1" stop-color="rgb(90.681458%, 8.657837%, 20.942688%)" offset="0.332031"/><stop stop-opacity="1" stop-color="rgb(90.37323%, 8.660889%, 21.353149%)" offset="0.335938"/><stop stop-opacity="1" stop-color="rgb(90.063477%, 8.662415%, 21.762085%)" offset="0.339844"/><stop stop-opacity="1" stop-color="rgb(89.753723%, 8.66394%, 22.172546%)" offset="0.34375"/><stop stop-opacity="1" stop-color="rgb(89.44397%, 8.665466%, 22.583008%)" offset="0.347656"/><stop stop-opacity="1" stop-color="rgb(89.135742%, 8.668518%, 22.993469%)" offset="0.351562"/><stop stop-opacity="1" stop-color="rgb(88.825989%, 8.670044%, 23.402405%)" offset="0.355469"/><stop stop-opacity="1" stop-color="rgb(88.516235%, 8.67157%, 23.812866%)" offset="0.359375"/><stop stop-opacity="1" stop-color="rgb(88.206482%, 8.673096%, 24.221802%)" offset="0.363281"/><stop stop-opacity="1" stop-color="rgb(87.898254%, 8.676147%, 24.632263%)" offset="0.367188"/><stop stop-opacity="1" stop-color="rgb(87.588501%, 8.677673%, 25.041199%)" offset="0.371094"/><stop stop-opacity="1" stop-color="rgb(87.278748%, 8.679199%, 25.45166%)" offset="0.375"/><stop stop-opacity="1" stop-color="rgb(86.968994%, 8.680725%, 25.862122%)" offset="0.378906"/><stop stop-opacity="1" stop-color="rgb(86.659241%, 8.683777%, 26.272583%)" offset="0.382812"/><stop stop-opacity="1" stop-color="rgb(86.349487%, 8.685303%, 26.681519%)" offset="0.386719"/><stop stop-opacity="1" stop-color="rgb(86.04126%, 8.688354%, 27.09198%)" offset="0.390625"/><stop stop-opacity="1" stop-color="rgb(85.731506%, 8.68988%, 27.500916%)" offset="0.394531"/><stop stop-opacity="1" stop-color="rgb(85.421753%, 8.691406%, 27.911377%)" offset="0.398438"/><stop stop-opacity="1" stop-color="rgb(85.112%, 8.692932%, 28.321838%)" offset="0.402344"/><stop stop-opacity="1" stop-color="rgb(84.803772%, 8.695984%, 28.7323%)" offset="0.40625"/><stop stop-opacity="1" stop-color="rgb(84.494019%, 8.69751%, 29.141235%)" offset="0.410156"/><stop stop-opacity="1" stop-color="rgb(84.184265%, 8.699036%, 29.551697%)" offset="0.414062"/><stop stop-opacity="1" stop-color="rgb(83.874512%, 8.700562%, 29.960632%)" offset="0.417969"/><stop stop-opacity="1" stop-color="rgb(83.566284%, 8.703613%, 30.371094%)" offset="0.421875"/><stop stop-opacity="1" stop-color="rgb(83.256531%, 8.705139%, 30.780029%)" offset="0.425781"/><stop stop-opacity="1" stop-color="rgb(82.946777%, 8.706665%, 31.190491%)" offset="0.429687"/><stop stop-opacity="1" stop-color="rgb(82.637024%, 8.708191%, 31.600952%)" offset="0.433594"/><stop stop-opacity="1" stop-color="rgb(82.328796%, 8.711243%, 32.011414%)" offset="0.4375"/><stop stop-opacity="1" stop-color="rgb(82.019043%, 8.712769%, 32.420349%)" offset="0.441406"/><stop stop-opacity="1" stop-color="rgb(81.70929%, 8.71582%, 32.830811%)" offset="0.445312"/><stop stop-opacity="1" stop-color="rgb(81.399536%, 8.717346%, 33.239746%)" offset="0.449219"/><stop stop-opacity="1" stop-color="rgb(81.091309%, 8.718872%, 33.650208%)" offset="0.453125"/><stop stop-opacity="1" stop-color="rgb(80.781555%, 8.720398%, 34.060669%)" offset="0.457031"/><stop stop-opacity="1" stop-color="rgb(80.471802%, 8.72345%, 34.47113%)" offset="0.460938"/><stop stop-opacity="1" stop-color="rgb(80.162048%, 8.724976%, 34.880066%)" offset="0.464844"/><stop stop-opacity="1" stop-color="rgb(79.853821%, 8.726501%, 35.290527%)" offset="0.46875"/><stop stop-opacity="1" stop-color="rgb(79.544067%, 8.728027%, 35.699463%)" offset="0.472656"/><stop stop-opacity="1" stop-color="rgb(79.234314%, 8.731079%, 36.109924%)" offset="0.476562"/><stop stop-opacity="1" stop-color="rgb(78.924561%, 8.732605%, 36.520386%)" offset="0.480469"/><stop stop-opacity="1" stop-color="rgb(78.614807%, 8.734131%, 36.930847%)" offset="0.484375"/><stop stop-opacity="1" stop-color="rgb(78.305054%, 8.735657%, 37.339783%)" offset="0.488281"/><stop stop-opacity="1" stop-color="rgb(77.996826%, 8.738708%, 37.750244%)" offset="0.492187"/><stop stop-opacity="1" stop-color="rgb(77.687073%, 8.740234%, 38.15918%)" offset="0.496094"/><stop stop-opacity="1" stop-color="rgb(77.377319%, 8.743286%, 38.569641%)" offset="0.5"/><stop stop-opacity="1" stop-color="rgb(77.067566%, 8.744812%, 38.978577%)" offset="0.503906"/><stop stop-opacity="1" stop-color="rgb(76.759338%, 8.746338%, 39.389038%)" offset="0.507812"/><stop stop-opacity="1" stop-color="rgb(76.449585%, 8.747864%, 39.7995%)" offset="0.511719"/><stop stop-opacity="1" stop-color="rgb(76.139832%, 8.750916%, 40.209961%)" offset="0.515625"/><stop stop-opacity="1" stop-color="rgb(75.830078%, 8.752441%, 40.618896%)" offset="0.519531"/><stop stop-opacity="1" stop-color="rgb(75.521851%, 8.753967%, 41.029358%)" offset="0.523438"/><stop stop-opacity="1" stop-color="rgb(75.212097%, 8.755493%, 41.438293%)" offset="0.527344"/><stop stop-opacity="1" stop-color="rgb(74.902344%, 8.758545%, 41.848755%)" offset="0.53125"/><stop stop-opacity="1" stop-color="rgb(74.59259%, 8.760071%, 42.259216%)" offset="0.535156"/><stop stop-opacity="1" stop-color="rgb(74.284363%, 8.761597%, 42.669678%)" offset="0.539062"/><stop stop-opacity="1" stop-color="rgb(73.974609%, 8.763123%, 43.078613%)" offset="0.542969"/><stop stop-opacity="1" stop-color="rgb(73.664856%, 8.766174%, 43.489075%)" offset="0.546875"/><stop stop-opacity="1" stop-color="rgb(73.355103%, 8.7677%, 43.89801%)" offset="0.550781"/><stop stop-opacity="1" stop-color="rgb(73.046875%, 8.770752%, 44.308472%)" offset="0.554687"/><stop stop-opacity="1" stop-color="rgb(72.737122%, 8.772278%, 44.717407%)" offset="0.558594"/><stop stop-opacity="1" stop-color="rgb(72.427368%, 8.773804%, 45.127869%)" offset="0.5625"/><stop stop-opacity="1" stop-color="rgb(72.117615%, 8.77533%, 45.53833%)" offset="0.566406"/><stop stop-opacity="1" stop-color="rgb(71.809387%, 8.778381%, 45.948792%)" offset="0.570312"/><stop stop-opacity="1" stop-color="rgb(71.499634%, 8.779907%, 46.357727%)" offset="0.574219"/><stop stop-opacity="1" stop-color="rgb(71.18988%, 8.781433%, 46.768188%)" offset="0.578125"/><stop stop-opacity="1" stop-color="rgb(70.880127%, 8.782959%, 47.177124%)" offset="0.582031"/><stop stop-opacity="1" stop-color="rgb(70.570374%, 8.786011%, 47.587585%)" offset="0.585938"/><stop stop-opacity="1" stop-color="rgb(70.26062%, 8.787537%, 47.998047%)" offset="0.589844"/><stop stop-opacity="1" stop-color="rgb(69.952393%, 8.789062%, 48.408508%)" offset="0.59375"/><stop stop-opacity="1" stop-color="rgb(69.642639%, 8.790588%, 48.817444%)" offset="0.597656"/><stop stop-opacity="1" stop-color="rgb(69.332886%, 8.79364%, 49.227905%)" offset="0.601562"/><stop stop-opacity="1" stop-color="rgb(69.023132%, 8.795166%, 49.636841%)" offset="0.605469"/><stop stop-opacity="1" stop-color="rgb(68.714905%, 8.798218%, 50.047302%)" offset="0.609375"/><stop stop-opacity="1" stop-color="rgb(68.405151%, 8.799744%, 50.456238%)" offset="0.613281"/><stop stop-opacity="1" stop-color="rgb(68.095398%, 8.80127%, 50.866699%)" offset="0.617188"/><stop stop-opacity="1" stop-color="rgb(67.785645%, 8.802795%, 51.277161%)" offset="0.621094"/><stop stop-opacity="1" stop-color="rgb(67.477417%, 8.805847%, 51.687622%)" offset="0.625"/><stop stop-opacity="1" stop-color="rgb(67.167664%, 8.807373%, 52.096558%)" offset="0.628906"/><stop stop-opacity="1" stop-color="rgb(66.85791%, 8.808899%, 52.507019%)" offset="0.632812"/><stop stop-opacity="1" stop-color="rgb(66.548157%, 8.810425%, 52.915955%)" offset="0.636719"/><stop stop-opacity="1" stop-color="rgb(66.239929%, 8.813477%, 53.326416%)" offset="0.640625"/><stop stop-opacity="1" stop-color="rgb(65.930176%, 8.815002%, 53.736877%)" offset="0.644531"/><stop stop-opacity="1" stop-color="rgb(65.620422%, 8.816528%, 54.147339%)" offset="0.648437"/><stop stop-opacity="1" stop-color="rgb(65.310669%, 8.818054%, 54.556274%)" offset="0.652344"/><stop stop-opacity="1" stop-color="rgb(65.002441%, 8.821106%, 54.966736%)" offset="0.65625"/><stop stop-opacity="1" stop-color="rgb(64.692688%, 8.822632%, 55.375671%)" offset="0.660156"/><stop stop-opacity="1" stop-color="rgb(64.382935%, 8.825684%, 55.786133%)" offset="0.664062"/><stop stop-opacity="1" stop-color="rgb(64.073181%, 8.827209%, 56.196594%)" offset="0.667969"/><stop stop-opacity="1" stop-color="rgb(63.764954%, 8.828735%, 56.607056%)" offset="0.671875"/><stop stop-opacity="1" stop-color="rgb(63.4552%, 8.830261%, 57.015991%)" offset="0.675781"/><stop stop-opacity="1" stop-color="rgb(63.145447%, 8.833313%, 57.426453%)" offset="0.679688"/><stop stop-opacity="1" stop-color="rgb(62.835693%, 8.834839%, 57.835388%)" offset="0.683594"/><stop stop-opacity="1" stop-color="rgb(62.52594%, 8.836365%, 58.24585%)" offset="0.6875"/><stop stop-opacity="1" stop-color="rgb(62.216187%, 8.837891%, 58.654785%)" offset="0.691406"/><stop stop-opacity="1" stop-color="rgb(61.907959%, 8.840942%, 59.065247%)" offset="0.695312"/><stop stop-opacity="1" stop-color="rgb(61.598206%, 8.842468%, 59.475708%)" offset="0.699219"/><stop stop-opacity="1" stop-color="rgb(61.288452%, 8.843994%, 59.886169%)" offset="0.703125"/><stop stop-opacity="1" stop-color="rgb(60.978699%, 8.84552%, 60.295105%)" offset="0.707031"/><stop stop-opacity="1" stop-color="rgb(60.670471%, 8.848572%, 60.705566%)" offset="0.710937"/><stop stop-opacity="1" stop-color="rgb(60.360718%, 8.850098%, 61.114502%)" offset="0.714844"/><stop stop-opacity="1" stop-color="rgb(60.050964%, 8.853149%, 61.524963%)" offset="0.71875"/><stop stop-opacity="1" stop-color="rgb(59.741211%, 8.854675%, 61.935425%)" offset="0.722656"/><stop stop-opacity="1" stop-color="rgb(59.432983%, 8.856201%, 62.345886%)" offset="0.726562"/><stop stop-opacity="1" stop-color="rgb(59.12323%, 8.857727%, 62.754822%)" offset="0.730469"/><stop stop-opacity="1" stop-color="rgb(58.813477%, 8.860779%, 63.165283%)" offset="0.734375"/><stop stop-opacity="1" stop-color="rgb(58.503723%, 8.862305%, 63.574219%)" offset="0.738281"/><stop stop-opacity="1" stop-color="rgb(58.195496%, 8.863831%, 63.98468%)" offset="0.742188"/><stop stop-opacity="1" stop-color="rgb(57.885742%, 8.865356%, 64.393616%)" offset="0.746094"/><stop stop-opacity="1" stop-color="rgb(57.575989%, 8.868408%, 64.804077%)" offset="0.75"/><stop stop-opacity="1" stop-color="rgb(57.266235%, 8.869934%, 65.214539%)" offset="0.753906"/><stop stop-opacity="1" stop-color="rgb(56.958008%, 8.87146%, 65.625%)" offset="0.757812"/><stop stop-opacity="1" stop-color="rgb(56.648254%, 8.872986%, 66.033936%)" offset="0.761719"/><stop stop-opacity="1" stop-color="rgb(56.338501%, 8.876038%, 66.444397%)" offset="0.765625"/><stop stop-opacity="1" stop-color="rgb(56.028748%, 8.877563%, 66.853333%)" offset="0.769531"/><stop stop-opacity="1" stop-color="rgb(55.718994%, 8.880615%, 67.263794%)" offset="0.773437"/><stop stop-opacity="1" stop-color="rgb(55.409241%, 8.882141%, 67.674255%)" offset="0.777344"/><stop stop-opacity="1" stop-color="rgb(55.101013%, 8.883667%, 68.084717%)" offset="0.78125"/><stop stop-opacity="1" stop-color="rgb(54.79126%, 8.885193%, 68.493652%)" offset="0.785156"/><stop stop-opacity="1" stop-color="rgb(54.481506%, 8.888245%, 68.904114%)" offset="0.789062"/><stop stop-opacity="1" stop-color="rgb(54.171753%, 8.889771%, 69.313049%)" offset="0.792969"/><stop stop-opacity="1" stop-color="rgb(53.863525%, 8.891296%, 69.723511%)" offset="0.796875"/><stop stop-opacity="1" stop-color="rgb(53.553772%, 8.892822%, 70.133972%)" offset="0.800781"/><stop stop-opacity="1" stop-color="rgb(53.244019%, 8.895874%, 70.544434%)" offset="0.804688"/><stop stop-opacity="1" stop-color="rgb(52.934265%, 8.8974%, 70.953369%)" offset="0.808594"/><stop stop-opacity="1" stop-color="rgb(52.626038%, 8.898926%, 71.363831%)" offset="0.8125"/><stop stop-opacity="1" stop-color="rgb(52.316284%, 8.900452%, 71.772766%)" offset="0.816406"/><stop stop-opacity="1" stop-color="rgb(52.006531%, 8.903503%, 72.183228%)" offset="0.820312"/><stop stop-opacity="1" stop-color="rgb(51.696777%, 8.905029%, 72.592163%)" offset="0.824219"/><stop stop-opacity="1" stop-color="rgb(51.38855%, 8.908081%, 73.002625%)" offset="0.828125"/><stop stop-opacity="1" stop-color="rgb(51.078796%, 8.909607%, 73.413086%)" offset="0.832031"/><stop stop-opacity="1" stop-color="rgb(50.769043%, 8.911133%, 73.823547%)" offset="0.835937"/><stop stop-opacity="1" stop-color="rgb(50.45929%, 8.912659%, 74.232483%)" offset="0.839844"/><stop stop-opacity="1" stop-color="rgb(50.151062%, 8.91571%, 74.642944%)" offset="0.84375"/><stop stop-opacity="1" stop-color="rgb(49.841309%, 8.917236%, 75.05188%)" offset="0.847656"/><stop stop-opacity="1" stop-color="rgb(49.531555%, 8.918762%, 75.462341%)" offset="0.851562"/><stop stop-opacity="1" stop-color="rgb(49.221802%, 8.920288%, 75.872803%)" offset="0.855469"/><stop stop-opacity="1" stop-color="rgb(48.913574%, 8.92334%, 76.283264%)" offset="0.859375"/><stop stop-opacity="1" stop-color="rgb(48.603821%, 8.924866%, 76.6922%)" offset="0.863281"/><stop stop-opacity="1" stop-color="rgb(48.294067%, 8.926392%, 77.102661%)" offset="0.867188"/><stop stop-opacity="1" stop-color="rgb(47.984314%, 8.927917%, 77.511597%)" offset="0.871094"/><stop stop-opacity="1" stop-color="rgb(47.674561%, 8.930969%, 77.922058%)" offset="0.875"/><stop stop-opacity="1" stop-color="rgb(47.364807%, 8.932495%, 78.330994%)" offset="0.878906"/><stop stop-opacity="1" stop-color="rgb(47.05658%, 8.935547%, 78.741455%)" offset="0.882812"/><stop stop-opacity="1" stop-color="rgb(46.746826%, 8.937073%, 79.151917%)" offset="0.886719"/><stop stop-opacity="1" stop-color="rgb(46.437073%, 8.938599%, 79.562378%)" offset="0.890625"/><stop stop-opacity="1" stop-color="rgb(46.127319%, 8.940125%, 79.971313%)" offset="0.894531"/><stop stop-opacity="1" stop-color="rgb(45.819092%, 8.943176%, 80.381775%)" offset="0.898437"/><stop stop-opacity="1" stop-color="rgb(45.509338%, 8.944702%, 80.79071%)" offset="0.902344"/><stop stop-opacity="1" stop-color="rgb(45.199585%, 8.946228%, 81.201172%)" offset="0.90625"/><stop stop-opacity="1" stop-color="rgb(44.889832%, 8.947754%, 81.611633%)" offset="0.910156"/><stop stop-opacity="1" stop-color="rgb(44.581604%, 8.950806%, 82.022095%)" offset="0.914062"/><stop stop-opacity="1" stop-color="rgb(44.271851%, 8.952332%, 82.43103%)" offset="0.917969"/><stop stop-opacity="1" stop-color="rgb(43.962097%, 8.953857%, 82.841492%)" offset="0.921875"/><stop stop-opacity="1" stop-color="rgb(43.652344%, 8.955383%, 83.250427%)" offset="0.925781"/><stop stop-opacity="1" stop-color="rgb(43.344116%, 8.958435%, 83.660889%)" offset="0.929688"/><stop stop-opacity="1" stop-color="rgb(43.034363%, 8.959961%, 84.069824%)" offset="0.933594"/><stop stop-opacity="1" stop-color="rgb(42.724609%, 8.963013%, 84.480286%)" offset="0.9375"/><stop stop-opacity="1" stop-color="rgb(42.414856%, 8.964539%, 84.890747%)" offset="0.941406"/><stop stop-opacity="1" stop-color="rgb(42.106628%, 8.966064%, 85.301208%)" offset="0.945312"/><stop stop-opacity="1" stop-color="rgb(41.796875%, 8.96759%, 85.710144%)" offset="0.949219"/><stop stop-opacity="1" stop-color="rgb(41.487122%, 8.970642%, 86.120605%)" offset="0.953125"/><stop stop-opacity="1" stop-color="rgb(41.177368%, 8.972168%, 86.529541%)" offset="0.957031"/><stop stop-opacity="1" stop-color="rgb(40.869141%, 8.973694%, 86.940002%)" offset="0.960937"/><stop stop-opacity="1" stop-color="rgb(40.559387%, 8.97522%, 87.350464%)" offset="0.964844"/><stop stop-opacity="1" stop-color="rgb(40.249634%, 8.978271%, 87.760925%)" offset="0.96875"/><stop stop-opacity="1" stop-color="rgb(39.93988%, 8.979797%, 88.169861%)" offset="0.972656"/><stop stop-opacity="1" stop-color="rgb(39.630127%, 8.981323%, 88.580322%)" offset="0.976562"/><stop stop-opacity="1" stop-color="rgb(39.320374%, 8.982849%, 88.989258%)" offset="0.980469"/><stop stop-opacity="1" stop-color="rgb(39.012146%, 8.985901%, 89.399719%)" offset="0.984375"/><stop stop-opacity="1" stop-color="rgb(38.702393%, 8.987427%, 89.810181%)" offset="0.988281"/><stop stop-opacity="1" stop-color="rgb(38.392639%, 8.990479%, 90.220642%)" offset="0.992187"/><stop stop-opacity="1" stop-color="rgb(38.082886%, 8.992004%, 90.629578%)" offset="0.996094"/><stop stop-opacity="1" stop-color="rgb(37.774658%, 8.99353%, 91.040039%)" offset="1"/></linearGradient></defs><g clip-path="url(#df2cdee10e)"><path fill="#ff1616" d="M 55.53125 101.453125 C 30.511719 101.453125 10.15625 81.097656 10.15625 56.078125 C 10.15625 31.058594 30.511719 10.703125 55.53125 10.703125 C 80.550781 10.703125 100.90625 31.058594 100.90625 56.078125 C 100.90625 81.097656 80.550781 101.453125 55.53125 101.453125 Z M 55.53125 11.507812 C 30.953125 11.507812 10.960938 31.5 10.960938 56.078125 C 10.960938 80.65625 30.953125 100.648438 55.53125 100.648438 C 80.105469 100.648438 100.101562 80.65625 100.101562 56.078125 C 100.101562 31.5 80.105469 11.507812 55.53125 11.507812 Z M 55.53125 11.507812 " fill-opacity="1" fill-rule="nonzero"/></g><g clip-path="url(#dc896dd761)"><path fill="#ff1616" d="M 20.117188 41.507812 L 21.9375 45.195312 C 21.964844 45.257812 22.027344 45.304688 22.101562 45.3125 L 26.179688 45.902344 C 26.355469 45.933594 26.425781 46.152344 26.296875 46.273438 L 23.351562 49.136719 C 23.296875 49.183594 23.277344 49.257812 23.285156 49.332031 L 23.980469 53.386719 C 24.007812 53.5625 23.820312 53.699219 23.664062 53.617188 L 20.015625 51.699219 C 19.949219 51.664062 19.875 51.664062 19.8125 51.699219 L 16.160156 53.617188 C 16.003906 53.699219 15.820312 53.5625 15.847656 53.386719 L 16.539062 49.332031 C 16.550781 49.257812 16.53125 49.195312 16.476562 49.136719 L 13.535156 46.273438 C 13.40625 46.144531 13.480469 45.933594 13.65625 45.902344 L 17.730469 45.3125 C 17.804688 45.304688 17.859375 45.257812 17.898438 45.195312 L 19.71875 41.507812 C 19.800781 41.351562 20.03125 41.351562 20.117188 41.507812 Z M 20.117188 41.507812 " fill-opacity="1" fill-rule="nonzero"/></g><g clip-path="url(#745b7b7ecc)"><path fill="#ff1616" d="M 91.710938 41.507812 L 93.53125 45.195312 C 93.558594 45.257812 93.625 45.304688 93.699219 45.3125 L 97.773438 45.902344 C 97.949219 45.933594 98.023438 46.152344 97.894531 46.273438 L 94.945312 49.136719 C 94.890625 49.183594 94.871094 49.257812 94.878906 49.332031 L 95.574219 53.386719 C 95.601562 53.5625 95.417969 53.699219 95.257812 53.617188 L 91.609375 51.699219 C 91.542969 51.664062 91.46875 51.664062 91.40625 51.699219 L 87.753906 53.617188 C 87.597656 53.699219 87.414062 53.5625 87.441406 53.386719 L 88.132812 49.332031 C 88.144531 49.257812 88.125 49.195312 88.070312 49.136719 L 85.132812 46.273438 C 85 46.144531 85.074219 45.933594 85.25 45.902344 L 89.328125 45.3125 C 89.402344 45.304688 89.457031 45.257812 89.492188 45.195312 L 91.3125 41.507812 C 91.398438 41.351562 91.628906 41.351562 91.710938 41.507812 Z M 91.710938 41.507812 " fill-opacity="1" fill-rule="nonzero"/></g><g fill="#5e17eb" fill-opacity="1"><g transform="translate(22.489385, 39.398135)"><g/></g></g><g fill="#5e17eb" fill-opacity="1"><g transform="translate(25.941803, 35.980351)"><g><path d="M 2.296875 -1.6875 C 1.910156 -1.394531 1.503906 -1.210938 1.078125 -1.140625 C 0.648438 -1.078125 0.238281 -1.128906 -0.15625 -1.296875 C -0.550781 -1.460938 -0.890625 -1.726562 -1.171875 -2.09375 C -1.441406 -2.445312 -1.601562 -2.835938 -1.65625 -3.265625 C -1.707031 -3.691406 -1.644531 -4.101562 -1.46875 -4.5 C -1.300781 -4.894531 -1.023438 -5.238281 -0.640625 -5.53125 C -0.265625 -5.820312 0.132812 -6 0.5625 -6.0625 C 1 -6.125 1.414062 -6.078125 1.8125 -5.921875 C 2.207031 -5.765625 2.546875 -5.503906 2.828125 -5.140625 C 3.109375 -4.765625 3.269531 -4.363281 3.3125 -3.9375 C 3.363281 -3.507812 3.300781 -3.097656 3.125 -2.703125 C 2.945312 -2.316406 2.671875 -1.976562 2.296875 -1.6875 Z M 1.9375 -2.15625 C 2.21875 -2.375 2.421875 -2.628906 2.546875 -2.921875 C 2.671875 -3.210938 2.710938 -3.519531 2.671875 -3.84375 C 2.628906 -4.164062 2.503906 -4.460938 2.296875 -4.734375 C 2.097656 -4.992188 1.847656 -5.1875 1.546875 -5.3125 C 1.242188 -5.4375 0.9375 -5.476562 0.625 -5.4375 C 0.3125 -5.394531 0.015625 -5.265625 -0.265625 -5.046875 C -0.535156 -4.835938 -0.734375 -4.585938 -0.859375 -4.296875 C -0.992188 -4.003906 -1.039062 -3.695312 -1 -3.375 C -0.957031 -3.050781 -0.835938 -2.757812 -0.640625 -2.5 C -0.429688 -2.226562 -0.175781 -2.03125 0.125 -1.90625 C 0.425781 -1.78125 0.734375 -1.738281 1.046875 -1.78125 C 1.367188 -1.820312 1.664062 -1.945312 1.9375 -2.15625 Z M 1.9375 -2.15625 "/></g></g></g><g fill="#5e17eb" fill-opacity="1"><g transform="translate(32.933758, 30.965578)"><g><path d="M 4.578125 -2.25 L 3.0625 -5.34375 L 2.78125 -2 L 2.515625 -1.875 L -0.296875 -3.671875 L 1.21875 -0.59375 L 0.625 -0.3125 L -1.46875 -4.5625 L -0.953125 -4.8125 L 2.28125 -2.6875 L 2.5625 -6.53125 L 3.0625 -6.78125 L 5.15625 -2.53125 Z M 4.578125 -2.25 "/></g></g></g><g fill="#5e17eb" fill-opacity="1"><g transform="translate(41.492064, 27.127905)"><g><path d="M 3.375 -5.8125 L 4.609375 -1.25 L 4.09375 -1.109375 L 0.421875 -3.765625 L 1.34375 -0.359375 L 0.671875 -0.1875 L -0.5625 -4.75 L -0.015625 -4.890625 L 3.65625 -2.234375 L 2.734375 -5.640625 Z M 3.375 -5.8125 "/></g></g></g><g fill="#5e17eb" fill-opacity="1"><g transform="translate(49.792838, 25.242157)"><g><path d="M 0.15625 -4.78125 L 0.828125 -4.859375 L 1.375 -0.15625 L 0.703125 -0.078125 Z M 0.15625 -4.78125 "/></g></g></g><g fill="#5e17eb" fill-opacity="1"><g transform="translate(54.989904, 24.812042)"><g/></g></g><g fill="#5e17eb" fill-opacity="1"><g transform="translate(59.850025, 24.862162)"><g><path d="M 1.359375 -4.59375 L 3.328125 -4.3125 C 3.828125 -4.238281 4.253906 -4.078125 4.609375 -3.828125 C 4.972656 -3.578125 5.234375 -3.257812 5.390625 -2.875 C 5.554688 -2.488281 5.609375 -2.070312 5.546875 -1.625 C 5.484375 -1.15625 5.316406 -0.757812 5.046875 -0.4375 C 4.785156 -0.113281 4.445312 0.117188 4.03125 0.265625 C 3.625 0.410156 3.171875 0.445312 2.671875 0.375 L 0.703125 0.09375 Z M 2.71875 -0.21875 C 3.09375 -0.164062 3.429688 -0.191406 3.734375 -0.296875 C 4.046875 -0.398438 4.300781 -0.570312 4.5 -0.8125 C 4.695312 -1.0625 4.820312 -1.363281 4.875 -1.71875 C 4.925781 -2.050781 4.890625 -2.363281 4.765625 -2.65625 C 4.640625 -2.957031 4.441406 -3.195312 4.171875 -3.375 C 3.910156 -3.550781 3.59375 -3.664062 3.21875 -3.71875 L 1.953125 -3.90625 L 1.453125 -0.40625 Z M 2.71875 -0.21875 "/></g></g></g><g fill="#5e17eb" fill-opacity="1"><g transform="translate(68.253988, 26.303899)"><g><path d="M 2.6875 0.953125 C 2.226562 0.796875 1.851562 0.554688 1.5625 0.234375 C 1.269531 -0.078125 1.078125 -0.441406 0.984375 -0.859375 C 0.890625 -1.273438 0.914062 -1.703125 1.0625 -2.140625 C 1.207031 -2.566406 1.441406 -2.921875 1.765625 -3.203125 C 2.097656 -3.484375 2.476562 -3.664062 2.90625 -3.75 C 3.332031 -3.832031 3.773438 -3.796875 4.234375 -3.640625 C 4.679688 -3.484375 5.050781 -3.242188 5.34375 -2.921875 C 5.632812 -2.597656 5.820312 -2.226562 5.90625 -1.8125 C 6 -1.40625 5.972656 -0.984375 5.828125 -0.546875 C 5.679688 -0.0976562 5.445312 0.257812 5.125 0.53125 C 4.800781 0.8125 4.425781 0.988281 4 1.0625 C 3.570312 1.144531 3.132812 1.109375 2.6875 0.953125 Z M 2.875 0.390625 C 3.207031 0.503906 3.53125 0.53125 3.84375 0.46875 C 4.15625 0.40625 4.429688 0.265625 4.671875 0.046875 C 4.910156 -0.171875 5.082031 -0.441406 5.1875 -0.765625 C 5.300781 -1.078125 5.328125 -1.390625 5.265625 -1.703125 C 5.203125 -2.023438 5.0625 -2.300781 4.84375 -2.53125 C 4.632812 -2.769531 4.363281 -2.945312 4.03125 -3.0625 C 3.695312 -3.175781 3.375 -3.203125 3.0625 -3.140625 C 2.75 -3.085938 2.472656 -2.953125 2.234375 -2.734375 C 1.992188 -2.515625 1.816406 -2.25 1.703125 -1.9375 C 1.597656 -1.613281 1.578125 -1.289062 1.640625 -0.96875 C 1.703125 -0.65625 1.835938 -0.378906 2.046875 -0.140625 C 2.265625 0.0976562 2.539062 0.273438 2.875 0.390625 Z M 2.875 0.390625 "/></g></g></g><g fill="#5e17eb" fill-opacity="1"><g transform="translate(76.356379, 29.376761)"><g><path d="M 1.140625 0.65625 C 0.890625 0.53125 0.679688 0.359375 0.515625 0.140625 C 0.359375 -0.078125 0.265625 -0.316406 0.234375 -0.578125 L 0.8125 -0.8125 C 0.863281 -0.351562 1.0625 -0.0351562 1.40625 0.140625 C 1.644531 0.265625 1.859375 0.289062 2.046875 0.21875 C 2.242188 0.144531 2.414062 -0.03125 2.5625 -0.3125 L 3.8125 -2.65625 L 2.3125 -3.453125 L 2.59375 -3.984375 L 4.6875 -2.875 L 3.171875 -0.03125 C 2.929688 0.425781 2.640625 0.710938 2.296875 0.828125 C 1.960938 0.941406 1.578125 0.882812 1.140625 0.65625 Z M 1.140625 0.65625 "/></g></g></g><g fill="#5e17eb" fill-opacity="1"><g transform="translate(81.996308, 32.538062)"><g><path d="M 2.234375 1.75 C 1.847656 1.457031 1.566406 1.113281 1.390625 0.71875 C 1.210938 0.332031 1.148438 -0.0703125 1.203125 -0.5 C 1.253906 -0.925781 1.421875 -1.320312 1.703125 -1.6875 C 1.972656 -2.039062 2.304688 -2.300781 2.703125 -2.46875 C 3.097656 -2.632812 3.507812 -2.6875 3.9375 -2.625 C 4.375 -2.5625 4.785156 -2.382812 5.171875 -2.09375 C 5.546875 -1.800781 5.816406 -1.457031 5.984375 -1.0625 C 6.160156 -0.664062 6.226562 -0.253906 6.1875 0.171875 C 6.144531 0.597656 5.984375 0.992188 5.703125 1.359375 C 5.421875 1.734375 5.078125 2 4.671875 2.15625 C 4.273438 2.3125 3.863281 2.351562 3.4375 2.28125 C 3.007812 2.21875 2.609375 2.039062 2.234375 1.75 Z M 2.59375 1.28125 C 2.875 1.5 3.171875 1.628906 3.484375 1.671875 C 3.796875 1.710938 4.101562 1.671875 4.40625 1.546875 C 4.707031 1.421875 4.960938 1.222656 5.171875 0.953125 C 5.367188 0.691406 5.488281 0.398438 5.53125 0.078125 C 5.570312 -0.242188 5.53125 -0.550781 5.40625 -0.84375 C 5.28125 -1.132812 5.078125 -1.390625 4.796875 -1.609375 C 4.523438 -1.816406 4.226562 -1.941406 3.90625 -1.984375 C 3.59375 -2.023438 3.285156 -1.984375 2.984375 -1.859375 C 2.679688 -1.734375 2.429688 -1.539062 2.234375 -1.28125 C 2.023438 -1.007812 1.898438 -0.710938 1.859375 -0.390625 C 1.816406 -0.0664062 1.859375 0.238281 1.984375 0.53125 C 2.117188 0.820312 2.320312 1.070312 2.59375 1.28125 Z M 2.59375 1.28125 "/></g></g></g><g fill="#5e17eb" fill-opacity="1"><g transform="translate(88.694639, 38.094968)"><g/></g></g><g fill="#5e17eb" fill-opacity="1"><g transform="translate(15.868753, 60.561965)"><g><path d="M 0.734375 3.8125 L 3.3125 3.3125 L 0.90625 2.4375 L 0.859375 2.203125 L 2.75 0.515625 L 0.1875 1.015625 L 0.109375 0.53125 L 3.640625 -0.140625 L 3.71875 0.28125 L 1.515625 2.21875 L 4.28125 3.1875 L 4.359375 3.609375 L 0.828125 4.296875 Z M 0.734375 3.8125 "/></g></g></g><g fill="#5e17eb" fill-opacity="1"><g transform="translate(17.650953, 68.156243)"><g><path d="M 1.875 2.3125 L 1.171875 0.53125 L 0.1875 0.5 L 0 0 L 3.9375 0.21875 L 4.125 0.703125 L 1.359375 3.515625 L 1.171875 3.015625 Z M 2.1875 2 L 3.5625 0.640625 L 1.609375 0.546875 Z M 2.1875 2 "/></g></g></g><g fill="#5e17eb" fill-opacity="1"><g transform="translate(20.280232, 74.229233)"><g><path d="M 0.765625 1.40625 C 0.617188 1.175781 0.519531 0.925781 0.46875 0.65625 C 0.414062 0.382812 0.410156 0.15625 0.453125 -0.03125 L 0.90625 -0.0625 C 0.875 0.125 0.875 0.328125 0.90625 0.546875 C 0.945312 0.765625 1.03125 0.972656 1.15625 1.171875 C 1.300781 1.421875 1.453125 1.582031 1.609375 1.65625 C 1.773438 1.738281 1.929688 1.738281 2.078125 1.65625 C 2.179688 1.59375 2.242188 1.503906 2.265625 1.390625 C 2.296875 1.285156 2.296875 1.171875 2.265625 1.046875 C 2.242188 0.929688 2.203125 0.765625 2.140625 0.546875 C 2.054688 0.285156 2 0.0664062 1.96875 -0.109375 C 1.945312 -0.285156 1.960938 -0.457031 2.015625 -0.625 C 2.078125 -0.800781 2.207031 -0.945312 2.40625 -1.0625 C 2.570312 -1.164062 2.742188 -1.210938 2.921875 -1.203125 C 3.109375 -1.191406 3.289062 -1.117188 3.46875 -0.984375 C 3.65625 -0.859375 3.828125 -0.664062 3.984375 -0.40625 C 4.097656 -0.21875 4.179688 -0.0195312 4.234375 0.1875 C 4.285156 0.394531 4.304688 0.582031 4.296875 0.75 L 3.84375 0.828125 C 3.851562 0.648438 3.835938 0.472656 3.796875 0.296875 C 3.753906 0.117188 3.691406 -0.0390625 3.609375 -0.1875 C 3.460938 -0.4375 3.304688 -0.59375 3.140625 -0.65625 C 2.984375 -0.726562 2.828125 -0.722656 2.671875 -0.640625 C 2.566406 -0.578125 2.503906 -0.488281 2.484375 -0.375 C 2.460938 -0.269531 2.460938 -0.15625 2.484375 -0.03125 C 2.503906 0.09375 2.546875 0.265625 2.609375 0.484375 C 2.691406 0.742188 2.742188 0.957031 2.765625 1.125 C 2.796875 1.300781 2.785156 1.472656 2.734375 1.640625 C 2.679688 1.816406 2.554688 1.960938 2.359375 2.078125 C 2.203125 2.171875 2.023438 2.210938 1.828125 2.203125 C 1.640625 2.191406 1.453125 2.117188 1.265625 1.984375 C 1.078125 1.859375 0.910156 1.664062 0.765625 1.40625 Z M 0.765625 1.40625 "/></g></g></g><g fill="#5e17eb" fill-opacity="1"><g transform="translate(23.513949, 79.317317)"><g><path d="M 3.234375 -1.015625 L 2.46875 -1.96875 L 2.8125 -2.234375 L 4.6875 0.078125 L 4.34375 0.34375 L 3.5625 -0.609375 L 1.109375 1.375 L 0.78125 0.96875 Z M 3.234375 -1.015625 "/></g></g></g><g fill="#5e17eb" fill-opacity="1"><g transform="translate(27.348027, 83.751174)"><g><path d="M 2.640625 1.796875 L 2.328125 2.125 L 0.40625 0.375 L 2.828125 -2.28125 L 4.6875 -0.578125 L 4.390625 -0.25 L 2.890625 -1.625 L 2.140625 -0.8125 L 3.484375 0.40625 L 3.1875 0.734375 L 1.84375 -0.484375 L 1.078125 0.375 Z M 2.640625 1.796875 "/></g></g></g><g fill="#5e17eb" fill-opacity="1"><g transform="translate(32.150164, 87.837349)"><g><path d="M 2.46875 1.609375 L 2.421875 0.265625 C 2.335938 0.210938 2.269531 0.171875 2.21875 0.140625 L 1.46875 -0.34375 L 0.875 0.578125 L 0.453125 0.296875 L 2.421875 -2.71875 L 3.59375 -1.953125 C 3.988281 -1.703125 4.234375 -1.410156 4.328125 -1.078125 C 4.429688 -0.742188 4.375 -0.414062 4.15625 -0.09375 C 4 0.144531 3.8125 0.304688 3.59375 0.390625 C 3.375 0.484375 3.132812 0.503906 2.875 0.453125 L 2.9375 1.90625 Z M 2.453125 -0.234375 C 2.734375 -0.046875 2.976562 0.03125 3.1875 0 C 3.40625 -0.0195312 3.585938 -0.140625 3.734375 -0.359375 C 3.878906 -0.578125 3.914062 -0.789062 3.84375 -1 C 3.78125 -1.207031 3.609375 -1.40625 3.328125 -1.59375 L 2.59375 -2.0625 L 1.71875 -0.703125 Z M 2.453125 -0.234375 "/></g></g></g><g fill="#5e17eb" fill-opacity="1"><g transform="translate(37.772489, 91.187247)"><g/></g></g><g fill="#5e17eb" fill-opacity="1"><g transform="translate(41.604894, 92.877617)"><g><path d="M 2.21875 -0.59375 L 1.828125 0.59375 L 1.34375 0.4375 L 1.734375 -0.75 L 1.09375 -3.421875 L 1.609375 -3.25 L 2.140625 -1.109375 L 3.8125 -2.546875 L 4.296875 -2.390625 Z M 2.21875 -0.59375 "/></g></g></g><g fill="#5e17eb" fill-opacity="1"><g transform="translate(47.560044, 94.603836)"><g><path d="M 2.15625 0.359375 C 1.789062 0.304688 1.472656 0.179688 1.203125 -0.015625 C 0.929688 -0.222656 0.734375 -0.476562 0.609375 -0.78125 C 0.492188 -1.082031 0.460938 -1.40625 0.515625 -1.75 C 0.566406 -2.082031 0.691406 -2.375 0.890625 -2.625 C 1.097656 -2.882812 1.359375 -3.070312 1.671875 -3.1875 C 1.984375 -3.300781 2.320312 -3.332031 2.6875 -3.28125 C 3.03125 -3.226562 3.335938 -3.101562 3.609375 -2.90625 C 3.878906 -2.707031 4.070312 -2.457031 4.1875 -2.15625 C 4.3125 -1.851562 4.347656 -1.53125 4.296875 -1.1875 C 4.242188 -0.84375 4.113281 -0.546875 3.90625 -0.296875 C 3.707031 -0.046875 3.453125 0.132812 3.140625 0.25 C 2.828125 0.375 2.5 0.410156 2.15625 0.359375 Z M 2.21875 -0.109375 C 2.46875 -0.0664062 2.703125 -0.0859375 2.921875 -0.171875 C 3.148438 -0.253906 3.34375 -0.390625 3.5 -0.578125 C 3.65625 -0.773438 3.753906 -1.003906 3.796875 -1.265625 C 3.828125 -1.515625 3.796875 -1.753906 3.703125 -1.984375 C 3.609375 -2.210938 3.46875 -2.398438 3.28125 -2.546875 C 3.09375 -2.703125 2.875 -2.800781 2.625 -2.84375 C 2.351562 -2.875 2.097656 -2.84375 1.859375 -2.75 C 1.628906 -2.664062 1.4375 -2.523438 1.28125 -2.328125 C 1.132812 -2.140625 1.046875 -1.921875 1.015625 -1.671875 C 0.972656 -1.410156 0.992188 -1.164062 1.078125 -0.9375 C 1.171875 -0.707031 1.316406 -0.519531 1.515625 -0.375 C 1.710938 -0.226562 1.945312 -0.140625 2.21875 -0.109375 Z M 2.21875 -0.109375 "/></g></g></g><g fill="#5e17eb" fill-opacity="1"><g transform="translate(54.723472, 95.392025)"><g><path d="M 2.03125 -0.015625 C 1.550781 -0.00390625 1.171875 -0.128906 0.890625 -0.390625 C 0.617188 -0.660156 0.476562 -1.050781 0.46875 -1.5625 L 0.40625 -3.609375 L 0.90625 -3.625 L 0.96875 -1.609375 C 0.988281 -0.835938 1.335938 -0.460938 2.015625 -0.484375 C 2.347656 -0.492188 2.597656 -0.59375 2.765625 -0.78125 C 2.929688 -0.976562 3.007812 -1.273438 3 -1.671875 L 2.9375 -3.6875 L 3.4375 -3.703125 L 3.5 -1.65625 C 3.507812 -1.144531 3.382812 -0.742188 3.125 -0.453125 C 2.875 -0.171875 2.507812 -0.0234375 2.03125 -0.015625 Z M 2.03125 -0.015625 "/></g></g></g><g fill="#5e17eb" fill-opacity="1"><g transform="translate(61.648089, 94.921452)"><g><path d="M 2.890625 -0.59375 L 1.90625 -1.53125 C 1.8125 -1.5 1.738281 -1.476562 1.6875 -1.46875 L 0.8125 -1.28125 L 1.03125 -0.203125 L 0.53125 -0.109375 L -0.1875 -3.625 L 1.1875 -3.90625 C 1.644531 -4 2.023438 -3.960938 2.328125 -3.796875 C 2.640625 -3.640625 2.832031 -3.367188 2.90625 -2.984375 C 2.96875 -2.710938 2.945312 -2.46875 2.84375 -2.25 C 2.75 -2.03125 2.59375 -1.847656 2.375 -1.703125 L 3.4375 -0.703125 Z M 1.578125 -1.875 C 1.898438 -1.945312 2.128906 -2.066406 2.265625 -2.234375 C 2.410156 -2.398438 2.457031 -2.613281 2.40625 -2.875 C 2.351562 -3.125 2.226562 -3.300781 2.03125 -3.40625 C 1.84375 -3.519531 1.585938 -3.539062 1.265625 -3.46875 L 0.40625 -3.296875 L 0.71875 -1.703125 Z M 1.578125 -1.875 "/></g></g></g><g fill="#5e17eb" fill-opacity="1"><g transform="translate(68.002763, 93.3565)"><g/></g></g><g fill="#5e17eb" fill-opacity="1"><g transform="translate(71.930161, 91.872154)"><g><path d="M 0.109375 -4.078125 C 0.523438 -4.285156 0.898438 -4.351562 1.234375 -4.28125 C 1.566406 -4.207031 1.820312 -3.992188 2 -3.640625 C 2.175781 -3.296875 2.195312 -2.960938 2.0625 -2.640625 C 1.925781 -2.316406 1.648438 -2.050781 1.234375 -1.84375 L 0.4375 -1.4375 L 0.9375 -0.46875 L 0.484375 -0.25 L -1.140625 -3.453125 Z M 1.03125 -2.234375 C 1.320312 -2.378906 1.507812 -2.550781 1.59375 -2.75 C 1.6875 -2.957031 1.675781 -3.179688 1.5625 -3.421875 C 1.445312 -3.648438 1.28125 -3.785156 1.0625 -3.828125 C 0.84375 -3.878906 0.585938 -3.832031 0.296875 -3.6875 L -0.484375 -3.28125 L 0.25 -1.828125 Z M 1.03125 -2.234375 "/></g></g></g><g fill="#5e17eb" fill-opacity="1"><g transform="translate(77.68775, 88.688597)"><g><path d="M 1.75 -2.40625 L 0.21875 -1.28125 L 0.421875 -0.3125 L 0 0 L -0.8125 -3.859375 L -0.40625 -4.15625 L 3.03125 -2.234375 L 2.609375 -1.921875 Z M 1.359375 -2.640625 L -0.3125 -3.59375 L 0.09375 -1.71875 Z M 1.359375 -2.640625 "/></g></g></g><g fill="#5e17eb" fill-opacity="1"><g transform="translate(82.863257, 84.56574)"><g><path d="M 1.15625 -1.109375 C 0.957031 -0.910156 0.738281 -0.75 0.5 -0.625 C 0.269531 -0.5 0.0507812 -0.429688 -0.15625 -0.421875 L -0.296875 -0.859375 C -0.117188 -0.867188 0.0703125 -0.921875 0.28125 -1.015625 C 0.488281 -1.117188 0.675781 -1.253906 0.84375 -1.421875 C 1.039062 -1.628906 1.15625 -1.820312 1.1875 -2 C 1.226562 -2.175781 1.191406 -2.320312 1.078125 -2.4375 C 0.984375 -2.519531 0.875 -2.5625 0.75 -2.5625 C 0.632812 -2.5625 0.519531 -2.53125 0.40625 -2.46875 C 0.300781 -2.414062 0.160156 -2.328125 -0.015625 -2.203125 C -0.253906 -2.066406 -0.457031 -1.957031 -0.625 -1.875 C -0.789062 -1.800781 -0.960938 -1.769531 -1.140625 -1.78125 C -1.316406 -1.800781 -1.488281 -1.890625 -1.65625 -2.046875 C -1.800781 -2.179688 -1.890625 -2.335938 -1.921875 -2.515625 C -1.953125 -2.691406 -1.925781 -2.882812 -1.84375 -3.09375 C -1.769531 -3.3125 -1.628906 -3.523438 -1.421875 -3.734375 C -1.265625 -3.890625 -1.09375 -4.019531 -0.90625 -4.125 C -0.726562 -4.238281 -0.554688 -4.3125 -0.390625 -4.34375 L -0.21875 -3.921875 C -0.382812 -3.890625 -0.546875 -3.832031 -0.703125 -3.75 C -0.859375 -3.664062 -0.992188 -3.5625 -1.109375 -3.4375 C -1.316406 -3.226562 -1.429688 -3.035156 -1.453125 -2.859375 C -1.484375 -2.679688 -1.4375 -2.53125 -1.3125 -2.40625 C -1.226562 -2.320312 -1.128906 -2.285156 -1.015625 -2.296875 C -0.898438 -2.304688 -0.785156 -2.335938 -0.671875 -2.390625 C -0.566406 -2.441406 -0.414062 -2.523438 -0.21875 -2.640625 C 0.0078125 -2.796875 0.207031 -2.90625 0.375 -2.96875 C 0.539062 -3.039062 0.707031 -3.070312 0.875 -3.0625 C 1.050781 -3.0625 1.222656 -2.976562 1.390625 -2.8125 C 1.523438 -2.6875 1.609375 -2.53125 1.640625 -2.34375 C 1.679688 -2.164062 1.660156 -1.96875 1.578125 -1.75 C 1.503906 -1.53125 1.363281 -1.316406 1.15625 -1.109375 Z M 1.15625 -1.109375 "/></g></g></g><g fill="#5e17eb" fill-opacity="1"><g transform="translate(86.934464, 80.119085)"><g><path d="M -1.8125 -2.875 L -2.53125 -1.875 L -2.890625 -2.125 L -1.140625 -4.53125 L -0.78125 -4.28125 L -1.515625 -3.28125 L 1.03125 -1.421875 L 0.734375 -1.015625 Z M -1.8125 -2.875 "/></g></g></g><g fill="#5e17eb" fill-opacity="1"><g transform="translate(90.168865, 75.286709)"><g><path d="M -2.890625 -2.203125 L -2.65625 -2.640625 L 0.5 -0.921875 L 0.265625 -0.484375 Z M -2.890625 -2.203125 "/></g></g></g><g fill="#5e17eb" fill-opacity="1"><g transform="translate(92.221508, 71.342038)"><g><path d="M 1.328125 -3.640625 L -1.140625 -4.53125 L 0.46875 -2.5625 L 0.390625 -2.34375 L -2.109375 -1.859375 L 0.34375 -0.96875 L 0.1875 -0.515625 L -3.1875 -1.734375 L -3.046875 -2.125 L -0.15625 -2.6875 L -2.03125 -4.921875 L -1.890625 -5.3125 L 1.484375 -4.109375 Z M 1.328125 -3.640625 "/></g></g></g><g fill="#5e17eb" fill-opacity="1"><g transform="translate(94.575136, 63.913616)"><g><path d="M 0.078125 -3.1875 L 0.53125 -3.109375 L 0.09375 -0.53125 L -3.453125 -1.140625 L -3.03125 -3.640625 L -2.59375 -3.5625 L -2.9375 -1.5625 L -1.84375 -1.375 L -1.53125 -3.15625 L -1.109375 -3.09375 L -1.421875 -1.3125 L -0.28125 -1.109375 Z M 0.078125 -3.1875 "/></g></g></g><g clip-path="url(#b8e8e08041)"><g clip-path="url(#1dedcdf0cb)"><path fill="url(#1f23881db7)" d="M 27.433594 33.640625 L 27.433594 78.609375 L 85.183594 78.609375 L 85.183594 33.640625 Z M 27.433594 33.640625 " fill-rule="nonzero"/></g></g></svg>