<svg xmlns="http://www.w3.org/2000/svg" xmlns:xlink="http://www.w3.org/1999/xlink" width="180" zoomAndPan="magnify" viewBox="0 0 135 135.000003" height="180" preserveAspectRatio="xMidYMid meet" version="1.0"><defs><g/><clipPath id="1520ff2363"><path d="M 12.59375 12.75 L 121.289062 12.75 L 121.289062 121.445312 L 12.59375 121.445312 Z M 12.59375 12.75 " clip-rule="nonzero"/></clipPath><clipPath id="d8c339cfc0"><path d="M 16.542969 49.300781 L 31.910156 49.300781 L 31.910156 63.898438 L 16.542969 63.898438 Z M 16.542969 49.300781 " clip-rule="nonzero"/></clipPath><clipPath id="ebd7d6e6ff"><path d="M 101.824219 49.300781 L 117.191406 49.300781 L 117.191406 63.898438 L 101.824219 63.898438 Z M 101.824219 49.300781 " clip-rule="nonzero"/></clipPath><clipPath id="d219f67c75"><path d="M 33.175781 40.035156 L 101.667969 40.035156 L 101.667969 93.636719 L 33.175781 93.636719 Z M 33.175781 40.035156 " clip-rule="nonzero"/></clipPath><clipPath id="71639dd9b6"><path d="M 90.257812 53.972656 C 90.882812 60.621094 88.257812 67.15625 83.203125 71.542969 C 89.730469 71.589844 96.113281 73.414062 101.671875 76.816406 C 92.953125 85.035156 80.382812 87.574219 69.234375 83.5625 C 69.417969 83.484375 69.605469 83.402344 69.785156 83.320312 C 70.730469 82.808594 71.550781 82.242188 72.246094 81.621094 L 72.214844 81.609375 C 79.972656 84.589844 90.359375 82.632812 96.917969 77.546875 C 90.761719 74.125 82.789062 72.945312 75.207031 74.675781 C 82.429688 71.9375 85.800781 65.683594 86.53125 58.027344 C 81.695312 58.183594 77.289062 60.847656 74.921875 65.054688 C 76.144531 57.816406 82.964844 52.890625 90.25 53.972656 Z M 36.269531 64.902344 C 39.234375 64.101562 42.292969 63.996094 44.921875 65.574219 C 42.128906 62.914062 38.050781 62.101562 34.4375 63.472656 C 34.605469 67.835938 38.183594 71.296875 42.570312 71.328125 C 39.246094 70.449219 36.855469 68.269531 36.261719 64.894531 Z M 98.578125 64.902344 C 95.609375 64.101562 92.554688 63.996094 89.925781 65.574219 C 92.71875 62.914062 96.796875 62.101562 100.410156 63.472656 C 100.238281 67.835938 96.660156 71.296875 92.277344 71.328125 C 95.601562 70.449219 97.992188 68.269531 98.585938 64.894531 Z M 51.210938 44.703125 C 54.097656 45.753906 56.652344 47.429688 57.882812 50.234375 C 57.144531 46.460938 54.289062 43.445312 50.546875 42.488281 C 48.15625 46.144531 49.070312 51.027344 52.628906 53.582031 C 50.429688 50.953125 49.742188 47.792969 51.210938 44.703125 Z M 83.632812 44.703125 C 80.746094 45.753906 78.195312 47.429688 76.960938 50.234375 C 77.703125 46.460938 80.558594 43.445312 84.296875 42.488281 C 86.691406 46.144531 85.773438 51.027344 82.21875 53.582031 C 84.417969 50.953125 85.109375 47.792969 83.632812 44.703125 Z M 49.683594 90.796875 C 55.003906 91.1875 60.300781 89.777344 64.71875 86.792969 C 60.53125 92.433594 53.265625 94.882812 46.496094 92.9375 C 47.246094 90.152344 49.019531 87.746094 51.46875 86.207031 C 52.34375 86.292969 53.234375 86.308594 54.117188 86.253906 C 52.285156 87.382812 50.765625 88.941406 49.683594 90.796875 Z M 85.160156 90.796875 C 79.839844 91.1875 74.539062 89.777344 70.121094 86.792969 C 74.308594 92.433594 81.574219 94.882812 88.34375 92.9375 C 87.597656 90.152344 85.824219 87.746094 83.371094 86.207031 C 82.496094 86.292969 81.609375 86.308594 80.726562 86.253906 C 82.554688 87.382812 84.074219 88.941406 85.160156 90.796875 Z M 67.5625 49.488281 C 69.128906 49.488281 70.40625 50.75 70.40625 52.320312 C 70.40625 53.882812 69.128906 55.152344 67.5625 55.152344 C 65.992188 55.152344 64.71875 53.882812 64.71875 52.320312 C 64.71875 50.757812 65.988281 49.488281 67.5625 49.488281 Z M 44.585938 53.972656 C 43.957031 60.621094 46.582031 67.15625 51.636719 71.542969 C 45.113281 71.589844 38.730469 73.414062 33.167969 76.816406 C 42.53125 85.636719 56.332031 87.914062 68.046875 82.570312 C 77.835938 77.285156 72.65625 67.921875 66.902344 61.585938 C 60.582031 54.621094 58.792969 51.007812 67.558594 43.292969 C 74.667969 48.859375 75.207031 55.171875 72.503906 60.125 C 77.6875 55.289062 77.292969 47.367188 67.410156 40.070312 C 51.328125 55.136719 61.855469 56.824219 67.214844 67.886719 C 75.753906 84.160156 48.664062 87.15625 37.769531 77.597656 C 44.613281 73.976562 53.703125 73.277344 61.289062 75.007812 C 54.066406 72.269531 49.035156 65.6875 48.304688 58.027344 C 53.140625 58.183594 57.546875 60.847656 59.914062 65.054688 C 58.691406 57.816406 51.871094 52.890625 44.585938 53.972656 Z M 44.585938 53.972656 " clip-rule="evenodd"/></clipPath><linearGradient x1="75.069926" gradientTransform="matrix(0.54463, 0, 0, 0.542536, 33.174398, 40.069044)" y1="-2.762048" x2="69.33357" gradientUnits="userSpaceOnUse" y2="102.513297" id="af166c3545"><stop stop-opacity="1" stop-color="rgb(100%, 8.599854%, 8.599854%)" offset="0"/><stop stop-opacity="1" stop-color="rgb(100%, 8.599854%, 8.599854%)" offset="0.064899"/><stop stop-opacity="1" stop-color="rgb(100%, 8.599854%, 8.599854%)" offset="0.125"/><stop stop-opacity="1" stop-color="rgb(100%, 8.599854%, 8.599854%)" offset="0.1875"/><stop stop-opacity="1" stop-color="rgb(100%, 8.599854%, 8.599854%)" offset="0.203125"/><stop stop-opacity="1" stop-color="rgb(100%, 8.599854%, 8.599854%)" offset="0.210938"/><stop stop-opacity="1" stop-color="rgb(99.827576%, 8.599854%, 8.827209%)" offset="0.214844"/><stop stop-opacity="1" stop-color="rgb(99.655151%, 8.601379%, 9.054565%)" offset="0.21875"/><stop stop-opacity="1" stop-color="rgb(99.345398%, 8.602905%, 9.463501%)" offset="0.222656"/><stop stop-opacity="1" stop-color="rgb(99.03717%, 8.605957%, 9.873962%)" offset="0.226563"/><stop stop-opacity="1" stop-color="rgb(98.727417%, 8.607483%, 10.284424%)" offset="0.230469"/><stop stop-opacity="1" stop-color="rgb(98.417664%, 8.609009%, 10.694885%)" offset="0.234375"/><stop stop-opacity="1" stop-color="rgb(98.10791%, 8.610535%, 11.103821%)" offset="0.238281"/><stop stop-opacity="1" stop-color="rgb(97.799683%, 8.613586%, 11.514282%)" offset="0.242188"/><stop stop-opacity="1" stop-color="rgb(97.489929%, 8.615112%, 11.923218%)" offset="0.246094"/><stop stop-opacity="1" stop-color="rgb(97.180176%, 8.616638%, 12.333679%)" offset="0.25"/><stop stop-opacity="1" stop-color="rgb(96.870422%, 8.618164%, 12.742615%)" offset="0.253906"/><stop stop-opacity="1" stop-color="rgb(96.562195%, 8.621216%, 13.153076%)" offset="0.257813"/><stop stop-opacity="1" stop-color="rgb(96.252441%, 8.622742%, 13.563538%)" offset="0.261719"/><stop stop-opacity="1" stop-color="rgb(95.942688%, 8.624268%, 13.973999%)" offset="0.265625"/><stop stop-opacity="1" stop-color="rgb(95.632935%, 8.625793%, 14.382935%)" offset="0.269531"/><stop stop-opacity="1" stop-color="rgb(95.324707%, 8.628845%, 14.793396%)" offset="0.273438"/><stop stop-opacity="1" stop-color="rgb(95.014954%, 8.630371%, 15.202332%)" offset="0.277344"/><stop stop-opacity="1" stop-color="rgb(94.7052%, 8.633423%, 15.612793%)" offset="0.28125"/><stop stop-opacity="1" stop-color="rgb(94.395447%, 8.634949%, 16.023254%)" offset="0.285156"/><stop stop-opacity="1" stop-color="rgb(94.085693%, 8.636475%, 16.433716%)" offset="0.289063"/><stop stop-opacity="1" stop-color="rgb(93.77594%, 8.638%, 16.842651%)" offset="0.292969"/><stop stop-opacity="1" stop-color="rgb(93.467712%, 8.641052%, 17.253113%)" offset="0.296875"/><stop stop-opacity="1" stop-color="rgb(93.157959%, 8.642578%, 17.662048%)" offset="0.300781"/><stop stop-opacity="1" stop-color="rgb(92.848206%, 8.644104%, 18.07251%)" offset="0.304688"/><stop stop-opacity="1" stop-color="rgb(92.538452%, 8.64563%, 18.481445%)" offset="0.308594"/><stop stop-opacity="1" stop-color="rgb(92.230225%, 8.648682%, 18.891907%)" offset="0.3125"/><stop stop-opacity="1" stop-color="rgb(91.920471%, 8.650208%, 19.302368%)" offset="0.316406"/><stop stop-opacity="1" stop-color="rgb(91.610718%, 8.651733%, 19.71283%)" offset="0.320313"/><stop stop-opacity="1" stop-color="rgb(91.300964%, 8.653259%, 20.121765%)" offset="0.324219"/><stop stop-opacity="1" stop-color="rgb(90.992737%, 8.656311%, 20.532227%)" offset="0.328125"/><stop stop-opacity="1" stop-color="rgb(90.682983%, 8.657837%, 20.941162%)" offset="0.332031"/><stop stop-opacity="1" stop-color="rgb(90.37323%, 8.660889%, 21.351624%)" offset="0.335938"/><stop stop-opacity="1" stop-color="rgb(90.063477%, 8.662415%, 21.760559%)" offset="0.339844"/><stop stop-opacity="1" stop-color="rgb(89.755249%, 8.66394%, 22.171021%)" offset="0.34375"/><stop stop-opacity="1" stop-color="rgb(89.445496%, 8.665466%, 22.581482%)" offset="0.347656"/><stop stop-opacity="1" stop-color="rgb(89.135742%, 8.668518%, 22.991943%)" offset="0.351563"/><stop stop-opacity="1" stop-color="rgb(88.825989%, 8.670044%, 23.400879%)" offset="0.355469"/><stop stop-opacity="1" stop-color="rgb(88.517761%, 8.67157%, 23.81134%)" offset="0.359375"/><stop stop-opacity="1" stop-color="rgb(88.208008%, 8.673096%, 24.220276%)" offset="0.363281"/><stop stop-opacity="1" stop-color="rgb(87.898254%, 8.676147%, 24.630737%)" offset="0.367188"/><stop stop-opacity="1" stop-color="rgb(87.588501%, 8.677673%, 25.041199%)" offset="0.371094"/><stop stop-opacity="1" stop-color="rgb(87.280273%, 8.679199%, 25.45166%)" offset="0.375"/><stop stop-opacity="1" stop-color="rgb(86.97052%, 8.680725%, 25.860596%)" offset="0.378906"/><stop stop-opacity="1" stop-color="rgb(86.660767%, 8.683777%, 26.271057%)" offset="0.382813"/><stop stop-opacity="1" stop-color="rgb(86.351013%, 8.685303%, 26.679993%)" offset="0.386719"/><stop stop-opacity="1" stop-color="rgb(86.042786%, 8.688354%, 27.090454%)" offset="0.390625"/><stop stop-opacity="1" stop-color="rgb(85.733032%, 8.68988%, 27.49939%)" offset="0.394531"/><stop stop-opacity="1" stop-color="rgb(85.423279%, 8.691406%, 27.909851%)" offset="0.398438"/><stop stop-opacity="1" stop-color="rgb(85.113525%, 8.692932%, 28.320312%)" offset="0.402344"/><stop stop-opacity="1" stop-color="rgb(84.805298%, 8.695984%, 28.730774%)" offset="0.40625"/><stop stop-opacity="1" stop-color="rgb(84.495544%, 8.69751%, 29.139709%)" offset="0.410156"/><stop stop-opacity="1" stop-color="rgb(84.185791%, 8.699036%, 29.550171%)" offset="0.414062"/><stop stop-opacity="1" stop-color="rgb(83.876038%, 8.700562%, 29.959106%)" offset="0.417969"/><stop stop-opacity="1" stop-color="rgb(83.56781%, 8.703613%, 30.369568%)" offset="0.421875"/><stop stop-opacity="1" stop-color="rgb(83.258057%, 8.705139%, 30.780029%)" offset="0.425781"/><stop stop-opacity="1" stop-color="rgb(82.948303%, 8.706665%, 31.190491%)" offset="0.429688"/><stop stop-opacity="1" stop-color="rgb(82.63855%, 8.708191%, 31.599426%)" offset="0.433594"/><stop stop-opacity="1" stop-color="rgb(82.328796%, 8.711243%, 32.009888%)" offset="0.4375"/><stop stop-opacity="1" stop-color="rgb(82.019043%, 8.712769%, 32.418823%)" offset="0.441406"/><stop stop-opacity="1" stop-color="rgb(81.710815%, 8.71582%, 32.829285%)" offset="0.445313"/><stop stop-opacity="1" stop-color="rgb(81.401062%, 8.717346%, 33.23822%)" offset="0.449219"/><stop stop-opacity="1" stop-color="rgb(81.091309%, 8.718872%, 33.648682%)" offset="0.453125"/><stop stop-opacity="1" stop-color="rgb(80.781555%, 8.720398%, 34.059143%)" offset="0.457031"/><stop stop-opacity="1" stop-color="rgb(80.473328%, 8.72345%, 34.469604%)" offset="0.460938"/><stop stop-opacity="1" stop-color="rgb(80.163574%, 8.724976%, 34.87854%)" offset="0.464844"/><stop stop-opacity="1" stop-color="rgb(79.853821%, 8.726501%, 35.289001%)" offset="0.46875"/><stop stop-opacity="1" stop-color="rgb(79.544067%, 8.728027%, 35.697937%)" offset="0.472656"/><stop stop-opacity="1" stop-color="rgb(79.23584%, 8.731079%, 36.108398%)" offset="0.476563"/><stop stop-opacity="1" stop-color="rgb(78.926086%, 8.732605%, 36.517334%)" offset="0.480469"/><stop stop-opacity="1" stop-color="rgb(78.616333%, 8.734131%, 36.927795%)" offset="0.484375"/><stop stop-opacity="1" stop-color="rgb(78.30658%, 8.735657%, 37.338257%)" offset="0.488281"/><stop stop-opacity="1" stop-color="rgb(77.998352%, 8.738708%, 37.748718%)" offset="0.492188"/><stop stop-opacity="1" stop-color="rgb(77.688599%, 8.740234%, 38.157654%)" offset="0.496094"/><stop stop-opacity="1" stop-color="rgb(77.378845%, 8.743286%, 38.568115%)" offset="0.5"/><stop stop-opacity="1" stop-color="rgb(77.069092%, 8.744812%, 38.977051%)" offset="0.503906"/><stop stop-opacity="1" stop-color="rgb(76.760864%, 8.746338%, 39.387512%)" offset="0.507812"/><stop stop-opacity="1" stop-color="rgb(76.451111%, 8.747864%, 39.797974%)" offset="0.511719"/><stop stop-opacity="1" stop-color="rgb(76.141357%, 8.750916%, 40.208435%)" offset="0.515625"/><stop stop-opacity="1" stop-color="rgb(75.831604%, 8.752441%, 40.617371%)" offset="0.519531"/><stop stop-opacity="1" stop-color="rgb(75.523376%, 8.753967%, 41.027832%)" offset="0.523438"/><stop stop-opacity="1" stop-color="rgb(75.213623%, 8.755493%, 41.436768%)" offset="0.527344"/><stop stop-opacity="1" stop-color="rgb(74.90387%, 8.758545%, 41.847229%)" offset="0.53125"/><stop stop-opacity="1" stop-color="rgb(74.594116%, 8.760071%, 42.256165%)" offset="0.535156"/><stop stop-opacity="1" stop-color="rgb(74.285889%, 8.761597%, 42.666626%)" offset="0.539063"/><stop stop-opacity="1" stop-color="rgb(73.976135%, 8.763123%, 43.077087%)" offset="0.542969"/><stop stop-opacity="1" stop-color="rgb(73.666382%, 8.766174%, 43.487549%)" offset="0.546875"/><stop stop-opacity="1" stop-color="rgb(73.356628%, 8.7677%, 43.896484%)" offset="0.550781"/><stop stop-opacity="1" stop-color="rgb(73.048401%, 8.770752%, 44.306946%)" offset="0.554688"/><stop stop-opacity="1" stop-color="rgb(72.738647%, 8.772278%, 44.715881%)" offset="0.558594"/><stop stop-opacity="1" stop-color="rgb(72.428894%, 8.773804%, 45.126343%)" offset="0.5625"/><stop stop-opacity="1" stop-color="rgb(72.119141%, 8.77533%, 45.535278%)" offset="0.566406"/><stop stop-opacity="1" stop-color="rgb(71.810913%, 8.778381%, 45.94574%)" offset="0.570313"/><stop stop-opacity="1" stop-color="rgb(71.50116%, 8.779907%, 46.356201%)" offset="0.574219"/><stop stop-opacity="1" stop-color="rgb(71.191406%, 8.781433%, 46.766663%)" offset="0.578125"/><stop stop-opacity="1" stop-color="rgb(70.881653%, 8.782959%, 47.175598%)" offset="0.582031"/><stop stop-opacity="1" stop-color="rgb(70.571899%, 8.786011%, 47.58606%)" offset="0.585938"/><stop stop-opacity="1" stop-color="rgb(70.262146%, 8.787537%, 47.994995%)" offset="0.589844"/><stop stop-opacity="1" stop-color="rgb(69.953918%, 8.789062%, 48.405457%)" offset="0.59375"/><stop stop-opacity="1" stop-color="rgb(69.644165%, 8.790588%, 48.815918%)" offset="0.597656"/><stop stop-opacity="1" stop-color="rgb(69.334412%, 8.79364%, 49.226379%)" offset="0.601563"/><stop stop-opacity="1" stop-color="rgb(69.024658%, 8.795166%, 49.635315%)" offset="0.605469"/><stop stop-opacity="1" stop-color="rgb(68.716431%, 8.798218%, 50.045776%)" offset="0.609375"/><stop stop-opacity="1" stop-color="rgb(68.406677%, 8.799744%, 50.454712%)" offset="0.613281"/><stop stop-opacity="1" stop-color="rgb(68.096924%, 8.80127%, 50.865173%)" offset="0.617188"/><stop stop-opacity="1" stop-color="rgb(67.78717%, 8.802795%, 51.274109%)" offset="0.621094"/><stop stop-opacity="1" stop-color="rgb(67.478943%, 8.805847%, 51.68457%)" offset="0.625"/><stop stop-opacity="1" stop-color="rgb(67.169189%, 8.807373%, 52.095032%)" offset="0.628906"/><stop stop-opacity="1" stop-color="rgb(66.859436%, 8.808899%, 52.505493%)" offset="0.632813"/><stop stop-opacity="1" stop-color="rgb(66.549683%, 8.810425%, 52.914429%)" offset="0.636719"/><stop stop-opacity="1" stop-color="rgb(66.241455%, 8.813477%, 53.32489%)" offset="0.640625"/><stop stop-opacity="1" stop-color="rgb(65.931702%, 8.815002%, 53.733826%)" offset="0.644531"/><stop stop-opacity="1" stop-color="rgb(65.621948%, 8.816528%, 54.144287%)" offset="0.648438"/><stop stop-opacity="1" stop-color="rgb(65.312195%, 8.818054%, 54.553223%)" offset="0.652344"/><stop stop-opacity="1" stop-color="rgb(65.003967%, 8.821106%, 54.963684%)" offset="0.65625"/><stop stop-opacity="1" stop-color="rgb(64.694214%, 8.822632%, 55.374146%)" offset="0.660156"/><stop stop-opacity="1" stop-color="rgb(64.38446%, 8.825684%, 55.784607%)" offset="0.664063"/><stop stop-opacity="1" stop-color="rgb(64.074707%, 8.827209%, 56.193542%)" offset="0.667969"/><stop stop-opacity="1" stop-color="rgb(63.766479%, 8.828735%, 56.604004%)" offset="0.671875"/><stop stop-opacity="1" stop-color="rgb(63.456726%, 8.830261%, 57.012939%)" offset="0.675781"/><stop stop-opacity="1" stop-color="rgb(63.146973%, 8.833313%, 57.423401%)" offset="0.679688"/><stop stop-opacity="1" stop-color="rgb(62.837219%, 8.834839%, 57.833862%)" offset="0.683594"/><stop stop-opacity="1" stop-color="rgb(62.528992%, 8.836365%, 58.244324%)" offset="0.6875"/><stop stop-opacity="1" stop-color="rgb(62.219238%, 8.837891%, 58.653259%)" offset="0.691406"/><stop stop-opacity="1" stop-color="rgb(61.909485%, 8.840942%, 59.063721%)" offset="0.695312"/><stop stop-opacity="1" stop-color="rgb(61.599731%, 8.842468%, 59.472656%)" offset="0.699219"/><stop stop-opacity="1" stop-color="rgb(61.291504%, 8.843994%, 59.883118%)" offset="0.703125"/><stop stop-opacity="1" stop-color="rgb(60.98175%, 8.84552%, 60.292053%)" offset="0.707031"/><stop stop-opacity="1" stop-color="rgb(60.671997%, 8.848572%, 60.702515%)" offset="0.710938"/><stop stop-opacity="1" stop-color="rgb(60.362244%, 8.850098%, 61.112976%)" offset="0.714844"/><stop stop-opacity="1" stop-color="rgb(60.05249%, 8.853149%, 61.523438%)" offset="0.71875"/><stop stop-opacity="1" stop-color="rgb(59.742737%, 8.854675%, 61.932373%)" offset="0.722656"/><stop stop-opacity="1" stop-color="rgb(59.434509%, 8.856201%, 62.342834%)" offset="0.726563"/><stop stop-opacity="1" stop-color="rgb(59.124756%, 8.857727%, 62.75177%)" offset="0.730469"/><stop stop-opacity="1" stop-color="rgb(58.815002%, 8.860779%, 63.162231%)" offset="0.734375"/><stop stop-opacity="1" stop-color="rgb(58.505249%, 8.862305%, 63.571167%)" offset="0.738281"/><stop stop-opacity="1" stop-color="rgb(58.197021%, 8.863831%, 63.981628%)" offset="0.742188"/><stop stop-opacity="1" stop-color="rgb(57.887268%, 8.865356%, 64.39209%)" offset="0.746094"/><stop stop-opacity="1" stop-color="rgb(57.577515%, 8.868408%, 64.802551%)" offset="0.75"/><stop stop-opacity="1" stop-color="rgb(57.267761%, 8.869934%, 65.211487%)" offset="0.753906"/><stop stop-opacity="1" stop-color="rgb(56.959534%, 8.87146%, 65.621948%)" offset="0.757813"/><stop stop-opacity="1" stop-color="rgb(56.64978%, 8.872986%, 66.030884%)" offset="0.761719"/><stop stop-opacity="1" stop-color="rgb(56.340027%, 8.876038%, 66.441345%)" offset="0.765625"/><stop stop-opacity="1" stop-color="rgb(56.030273%, 8.877563%, 66.851807%)" offset="0.769531"/><stop stop-opacity="1" stop-color="rgb(55.722046%, 8.880615%, 67.262268%)" offset="0.773438"/><stop stop-opacity="1" stop-color="rgb(55.412292%, 8.882141%, 67.671204%)" offset="0.777344"/><stop stop-opacity="1" stop-color="rgb(55.102539%, 8.883667%, 68.081665%)" offset="0.78125"/><stop stop-opacity="1" stop-color="rgb(54.792786%, 8.885193%, 68.490601%)" offset="0.785156"/><stop stop-opacity="1" stop-color="rgb(54.484558%, 8.888245%, 68.901062%)" offset="0.789063"/><stop stop-opacity="1" stop-color="rgb(54.174805%, 8.889771%, 69.309998%)" offset="0.792969"/><stop stop-opacity="1" stop-color="rgb(53.865051%, 8.891296%, 69.720459%)" offset="0.796875"/><stop stop-opacity="1" stop-color="rgb(53.555298%, 8.892822%, 70.13092%)" offset="0.800781"/><stop stop-opacity="1" stop-color="rgb(53.24707%, 8.895874%, 70.541382%)" offset="0.804688"/><stop stop-opacity="1" stop-color="rgb(52.937317%, 8.8974%, 70.950317%)" offset="0.808594"/><stop stop-opacity="1" stop-color="rgb(52.627563%, 8.898926%, 71.360779%)" offset="0.8125"/><stop stop-opacity="1" stop-color="rgb(52.31781%, 8.900452%, 71.769714%)" offset="0.816406"/><stop stop-opacity="1" stop-color="rgb(52.009583%, 8.903503%, 72.180176%)" offset="0.820312"/><stop stop-opacity="1" stop-color="rgb(51.699829%, 8.905029%, 72.590637%)" offset="0.824219"/><stop stop-opacity="1" stop-color="rgb(51.390076%, 8.908081%, 73.001099%)" offset="0.828125"/><stop stop-opacity="1" stop-color="rgb(51.080322%, 8.909607%, 73.410034%)" offset="0.832031"/><stop stop-opacity="1" stop-color="rgb(50.772095%, 8.911133%, 73.820496%)" offset="0.835938"/><stop stop-opacity="1" stop-color="rgb(50.462341%, 8.912659%, 74.229431%)" offset="0.839844"/><stop stop-opacity="1" stop-color="rgb(50.152588%, 8.91571%, 74.639893%)" offset="0.84375"/><stop stop-opacity="1" stop-color="rgb(49.842834%, 8.917236%, 75.048828%)" offset="0.847656"/><stop stop-opacity="1" stop-color="rgb(49.534607%, 8.918762%, 75.45929%)" offset="0.851563"/><stop stop-opacity="1" stop-color="rgb(49.224854%, 8.920288%, 75.869751%)" offset="0.855469"/><stop stop-opacity="1" stop-color="rgb(48.9151%, 8.92334%, 76.280212%)" offset="0.859375"/><stop stop-opacity="1" stop-color="rgb(48.605347%, 8.924866%, 76.689148%)" offset="0.863281"/><stop stop-opacity="1" stop-color="rgb(48.295593%, 8.926392%, 77.099609%)" offset="0.867188"/><stop stop-opacity="1" stop-color="rgb(47.98584%, 8.927917%, 77.508545%)" offset="0.871094"/><stop stop-opacity="1" stop-color="rgb(47.677612%, 8.930969%, 77.919006%)" offset="0.875"/><stop stop-opacity="1" stop-color="rgb(47.367859%, 8.932495%, 78.327942%)" offset="0.878906"/><stop stop-opacity="1" stop-color="rgb(47.058105%, 8.935547%, 78.738403%)" offset="0.882813"/><stop stop-opacity="1" stop-color="rgb(46.748352%, 8.937073%, 79.148865%)" offset="0.886719"/><stop stop-opacity="1" stop-color="rgb(46.440125%, 8.938599%, 79.559326%)" offset="0.890625"/><stop stop-opacity="1" stop-color="rgb(46.130371%, 8.940125%, 79.968262%)" offset="0.894531"/><stop stop-opacity="1" stop-color="rgb(45.820618%, 8.943176%, 80.378723%)" offset="0.898437"/><stop stop-opacity="1" stop-color="rgb(45.510864%, 8.944702%, 80.787659%)" offset="0.902344"/><stop stop-opacity="1" stop-color="rgb(45.202637%, 8.946228%, 81.19812%)" offset="0.90625"/><stop stop-opacity="1" stop-color="rgb(44.892883%, 8.947754%, 81.608582%)" offset="0.910156"/><stop stop-opacity="1" stop-color="rgb(44.58313%, 8.950806%, 82.019043%)" offset="0.914062"/><stop stop-opacity="1" stop-color="rgb(44.273376%, 8.952332%, 82.427979%)" offset="0.917969"/><stop stop-opacity="1" stop-color="rgb(43.965149%, 8.953857%, 82.83844%)" offset="0.921875"/><stop stop-opacity="1" stop-color="rgb(43.655396%, 8.955383%, 83.247375%)" offset="0.925781"/><stop stop-opacity="1" stop-color="rgb(43.345642%, 8.958435%, 83.657837%)" offset="0.929688"/><stop stop-opacity="1" stop-color="rgb(43.035889%, 8.959961%, 84.066772%)" offset="0.933594"/><stop stop-opacity="1" stop-color="rgb(42.727661%, 8.963013%, 84.477234%)" offset="0.9375"/><stop stop-opacity="1" stop-color="rgb(42.417908%, 8.964539%, 84.887695%)" offset="0.941406"/><stop stop-opacity="1" stop-color="rgb(42.108154%, 8.966064%, 85.298157%)" offset="0.945313"/><stop stop-opacity="1" stop-color="rgb(41.798401%, 8.96759%, 85.707092%)" offset="0.949219"/><stop stop-opacity="1" stop-color="rgb(41.490173%, 8.970642%, 86.117554%)" offset="0.953125"/><stop stop-opacity="1" stop-color="rgb(41.18042%, 8.972168%, 86.526489%)" offset="0.957031"/><stop stop-opacity="1" stop-color="rgb(40.870667%, 8.973694%, 86.936951%)" offset="0.960938"/><stop stop-opacity="1" stop-color="rgb(40.560913%, 8.97522%, 87.345886%)" offset="0.964844"/><stop stop-opacity="1" stop-color="rgb(40.252686%, 8.978271%, 87.756348%)" offset="0.96875"/><stop stop-opacity="1" stop-color="rgb(39.942932%, 8.979797%, 88.166809%)" offset="0.972656"/><stop stop-opacity="1" stop-color="rgb(39.633179%, 8.981323%, 88.577271%)" offset="0.976563"/><stop stop-opacity="1" stop-color="rgb(39.323425%, 8.982849%, 88.986206%)" offset="0.980469"/><stop stop-opacity="1" stop-color="rgb(39.015198%, 8.985901%, 89.396667%)" offset="0.984375"/><stop stop-opacity="1" stop-color="rgb(38.705444%, 8.987427%, 89.805603%)" offset="0.988281"/><stop stop-opacity="1" stop-color="rgb(38.395691%, 8.990479%, 90.216064%)" offset="0.992188"/><stop stop-opacity="1" stop-color="rgb(38.085938%, 8.992004%, 90.626526%)" offset="0.996094"/><stop stop-opacity="1" stop-color="rgb(37.77771%, 8.99353%, 91.036987%)" offset="1"/></linearGradient></defs><g clip-path="url(#1520ff2363)"><path fill="#ff1616" d="M 66.941406 121.445312 C 36.972656 121.445312 12.59375 97.0625 12.59375 67.097656 C 12.59375 37.128906 36.972656 12.75 66.941406 12.75 C 96.910156 12.75 121.289062 37.128906 121.289062 67.097656 C 121.289062 97.0625 96.910156 121.445312 66.941406 121.445312 Z M 66.941406 13.710938 C 37.503906 13.710938 13.558594 37.660156 13.558594 67.097656 C 13.558594 96.53125 37.503906 120.480469 66.941406 120.480469 C 96.378906 120.480469 120.324219 96.53125 120.324219 67.097656 C 120.324219 37.660156 96.378906 13.710938 66.941406 13.710938 Z M 66.941406 13.710938 " fill-opacity="1" fill-rule="nonzero"/></g><g clip-path="url(#d8c339cfc0)"><path fill="#ff1616" d="M 24.457031 49.445312 L 26.625 53.835938 C 26.660156 53.910156 26.738281 53.964844 26.824219 53.976562 L 31.679688 54.679688 C 31.886719 54.714844 31.976562 54.976562 31.820312 55.117188 L 28.3125 58.53125 C 28.246094 58.585938 28.222656 58.675781 28.234375 58.761719 L 29.058594 63.59375 C 29.09375 63.800781 28.871094 63.964844 28.683594 63.867188 L 24.335938 61.582031 C 24.261719 61.539062 24.171875 61.539062 24.09375 61.582031 L 19.746094 63.867188 C 19.558594 63.964844 19.339844 63.800781 19.371094 63.59375 L 20.199219 58.761719 C 20.207031 58.675781 20.1875 58.597656 20.121094 58.53125 L 16.621094 55.117188 C 16.464844 54.964844 16.554688 54.714844 16.761719 54.679688 L 21.617188 53.976562 C 21.707031 53.964844 21.773438 53.910156 21.816406 53.835938 L 23.984375 49.445312 C 24.082031 49.257812 24.359375 49.257812 24.457031 49.445312 Z M 24.457031 49.445312 " fill-opacity="1" fill-rule="nonzero"/></g><g clip-path="url(#ebd7d6e6ff)"><path fill="#ff1616" d="M 109.738281 49.445312 L 111.910156 53.835938 C 111.941406 53.910156 112.019531 53.964844 112.105469 53.976562 L 116.960938 54.679688 C 117.171875 54.714844 117.257812 54.976562 117.105469 55.117188 L 113.59375 58.53125 C 113.527344 58.585938 113.503906 58.675781 113.515625 58.761719 L 114.339844 63.59375 C 114.375 63.800781 114.15625 63.964844 113.96875 63.867188 L 109.621094 61.582031 C 109.542969 61.539062 109.453125 61.539062 109.378906 61.582031 L 105.027344 63.867188 C 104.839844 63.964844 104.621094 63.800781 104.65625 63.59375 L 105.480469 58.761719 C 105.492188 58.675781 105.46875 58.597656 105.402344 58.53125 L 101.902344 55.117188 C 101.75 54.964844 101.835938 54.714844 102.046875 54.679688 L 106.898438 53.976562 C 106.988281 53.964844 107.054688 53.910156 107.097656 53.835938 L 109.265625 49.445312 C 109.367188 49.257812 109.640625 49.257812 109.738281 49.445312 Z M 109.738281 49.445312 " fill-opacity="1" fill-rule="nonzero"/></g><g fill="#5e17eb" fill-opacity="1"><g transform="translate(27.285149, 46.930142)"><g/></g></g><g fill="#5e17eb" fill-opacity="1"><g transform="translate(31.397587, 42.858956)"><g><path d="M 2.734375 -2 C 2.285156 -1.664062 1.800781 -1.457031 1.28125 -1.375 C 0.769531 -1.289062 0.28125 -1.34375 -0.1875 -1.53125 C -0.664062 -1.726562 -1.070312 -2.046875 -1.40625 -2.484375 C -1.726562 -2.910156 -1.914062 -3.375 -1.96875 -3.875 C -2.03125 -4.382812 -1.953125 -4.878906 -1.734375 -5.359375 C -1.523438 -5.835938 -1.195312 -6.242188 -0.75 -6.578125 C -0.300781 -6.921875 0.175781 -7.128906 0.6875 -7.203125 C 1.207031 -7.285156 1.703125 -7.234375 2.171875 -7.046875 C 2.640625 -6.859375 3.035156 -6.550781 3.359375 -6.125 C 3.691406 -5.6875 3.890625 -5.210938 3.953125 -4.703125 C 4.015625 -4.191406 3.9375 -3.695312 3.71875 -3.21875 C 3.507812 -2.75 3.179688 -2.34375 2.734375 -2 Z M 2.3125 -2.5625 C 2.632812 -2.820312 2.867188 -3.125 3.015625 -3.46875 C 3.171875 -3.820312 3.222656 -4.1875 3.171875 -4.5625 C 3.128906 -4.9375 2.976562 -5.289062 2.71875 -5.625 C 2.476562 -5.945312 2.179688 -6.179688 1.828125 -6.328125 C 1.484375 -6.472656 1.117188 -6.519531 0.734375 -6.46875 C 0.359375 -6.425781 0.0078125 -6.273438 -0.3125 -6.015625 C -0.632812 -5.773438 -0.875 -5.472656 -1.03125 -5.109375 C -1.1875 -4.753906 -1.242188 -4.390625 -1.203125 -4.015625 C -1.160156 -3.640625 -1.019531 -3.289062 -0.78125 -2.96875 C -0.519531 -2.632812 -0.210938 -2.394531 0.140625 -2.25 C 0.492188 -2.101562 0.863281 -2.054688 1.25 -2.109375 C 1.632812 -2.171875 1.988281 -2.320312 2.3125 -2.5625 Z M 2.3125 -2.5625 "/></g></g></g><g fill="#5e17eb" fill-opacity="1"><g transform="translate(39.72624, 36.885478)"><g><path d="M 5.453125 -2.671875 L 3.640625 -6.359375 L 3.328125 -2.390625 L 2.984375 -2.21875 L -0.34375 -4.390625 L 1.453125 -0.71875 L 0.75 -0.375 L -1.734375 -5.4375 L -1.140625 -5.71875 L 2.734375 -3.203125 L 3.0625 -7.796875 L 3.65625 -8.078125 L 6.15625 -3.03125 Z M 5.453125 -2.671875 "/></g></g></g><g fill="#5e17eb" fill-opacity="1"><g transform="translate(49.920694, 32.314131)"><g><path d="M 4.03125 -6.921875 L 5.5 -1.484375 L 4.875 -1.3125 L 0.5 -4.5 L 1.59375 -0.4375 L 0.8125 -0.21875 L -0.65625 -5.65625 L -0.015625 -5.828125 L 4.34375 -2.671875 L 3.25 -6.71875 Z M 4.03125 -6.921875 "/></g></g></g><g fill="#5e17eb" fill-opacity="1"><g transform="translate(59.80838, 30.067871)"><g><path d="M 0.1875 -5.703125 L 0.984375 -5.796875 L 1.640625 -0.1875 L 0.84375 -0.09375 Z M 0.1875 -5.703125 "/></g></g></g><g fill="#5e17eb" fill-opacity="1"><g transform="translate(71.788266, 29.615229)"><g><path d="M 1.609375 -5.484375 L 3.96875 -5.15625 C 4.5625 -5.070312 5.070312 -4.878906 5.5 -4.578125 C 5.925781 -4.273438 6.234375 -3.894531 6.421875 -3.4375 C 6.609375 -2.988281 6.664062 -2.488281 6.59375 -1.9375 C 6.519531 -1.382812 6.328125 -0.910156 6.015625 -0.515625 C 5.703125 -0.128906 5.300781 0.144531 4.8125 0.3125 C 4.320312 0.476562 3.78125 0.519531 3.1875 0.4375 L 0.828125 0.109375 Z M 3.234375 -0.265625 C 3.691406 -0.203125 4.101562 -0.234375 4.46875 -0.359375 C 4.84375 -0.484375 5.144531 -0.691406 5.375 -0.984375 C 5.601562 -1.273438 5.75 -1.628906 5.8125 -2.046875 C 5.875 -2.460938 5.832031 -2.835938 5.6875 -3.171875 C 5.539062 -3.515625 5.304688 -3.796875 4.984375 -4.015625 C 4.671875 -4.242188 4.285156 -4.390625 3.828125 -4.453125 L 2.328125 -4.65625 L 1.734375 -0.46875 Z M 3.234375 -0.265625 "/></g></g></g><g fill="#5e17eb" fill-opacity="1"><g transform="translate(81.79887, 31.332594)"><g><path d="M 3.203125 1.140625 C 2.671875 0.960938 2.222656 0.679688 1.859375 0.296875 C 1.503906 -0.0859375 1.273438 -0.523438 1.171875 -1.015625 C 1.066406 -1.515625 1.101562 -2.03125 1.28125 -2.5625 C 1.445312 -3.070312 1.722656 -3.492188 2.109375 -3.828125 C 2.492188 -4.160156 2.941406 -4.367188 3.453125 -4.453125 C 3.972656 -4.546875 4.5 -4.503906 5.03125 -4.328125 C 5.5625 -4.148438 6.003906 -3.867188 6.359375 -3.484375 C 6.710938 -3.109375 6.941406 -2.671875 7.046875 -2.171875 C 7.160156 -1.671875 7.132812 -1.164062 6.96875 -0.65625 C 6.789062 -0.125 6.503906 0.300781 6.109375 0.625 C 5.722656 0.957031 5.273438 1.171875 4.765625 1.265625 C 4.253906 1.359375 3.734375 1.316406 3.203125 1.140625 Z M 3.421875 0.453125 C 3.816406 0.585938 4.195312 0.617188 4.5625 0.546875 C 4.9375 0.472656 5.265625 0.3125 5.546875 0.0625 C 5.835938 -0.1875 6.050781 -0.507812 6.1875 -0.90625 C 6.3125 -1.289062 6.332031 -1.664062 6.25 -2.03125 C 6.175781 -2.40625 6.015625 -2.734375 5.765625 -3.015625 C 5.515625 -3.296875 5.191406 -3.503906 4.796875 -3.640625 C 4.410156 -3.765625 4.023438 -3.789062 3.640625 -3.71875 C 3.265625 -3.65625 2.929688 -3.5 2.640625 -3.25 C 2.359375 -3.007812 2.15625 -2.695312 2.03125 -2.3125 C 1.894531 -1.914062 1.863281 -1.53125 1.9375 -1.15625 C 2.019531 -0.78125 2.191406 -0.445312 2.453125 -0.15625 C 2.710938 0.125 3.035156 0.328125 3.421875 0.453125 Z M 3.421875 0.453125 "/></g></g></g><g fill="#5e17eb" fill-opacity="1"><g transform="translate(91.450247, 34.992917)"><g><path d="M 1.359375 0.796875 C 1.054688 0.640625 0.8125 0.429688 0.625 0.171875 C 0.4375 -0.0859375 0.320312 -0.375 0.28125 -0.6875 L 0.953125 -0.953125 C 1.023438 -0.410156 1.269531 -0.03125 1.6875 0.1875 C 1.96875 0.332031 2.222656 0.359375 2.453125 0.265625 C 2.691406 0.171875 2.898438 -0.046875 3.078125 -0.390625 L 4.5625 -3.171875 L 2.75 -4.125 L 3.078125 -4.75 L 5.59375 -3.421875 L 3.796875 -0.046875 C 3.503906 0.515625 3.148438 0.863281 2.734375 1 C 2.328125 1.132812 1.867188 1.066406 1.359375 0.796875 Z M 1.359375 0.796875 "/></g></g></g><g fill="#5e17eb" fill-opacity="1"><g transform="translate(98.168397, 38.758584)"><g><path d="M 2.671875 2.09375 C 2.222656 1.757812 1.890625 1.351562 1.671875 0.875 C 1.460938 0.394531 1.382812 -0.09375 1.4375 -0.59375 C 1.5 -1.101562 1.695312 -1.578125 2.03125 -2.015625 C 2.351562 -2.441406 2.75 -2.75 3.21875 -2.9375 C 3.695312 -3.132812 4.191406 -3.191406 4.703125 -3.109375 C 5.222656 -3.023438 5.707031 -2.816406 6.15625 -2.484375 C 6.601562 -2.140625 6.929688 -1.726562 7.140625 -1.25 C 7.359375 -0.78125 7.4375 -0.289062 7.375 0.21875 C 7.3125 0.726562 7.117188 1.195312 6.796875 1.625 C 6.460938 2.0625 6.0625 2.375 5.59375 2.5625 C 5.125 2.75 4.628906 2.800781 4.109375 2.71875 C 3.597656 2.644531 3.117188 2.4375 2.671875 2.09375 Z M 3.09375 1.53125 C 3.414062 1.789062 3.765625 1.941406 4.140625 1.984375 C 4.523438 2.035156 4.890625 1.988281 5.234375 1.84375 C 5.585938 1.695312 5.894531 1.457031 6.15625 1.125 C 6.394531 0.800781 6.535156 0.453125 6.578125 0.078125 C 6.628906 -0.296875 6.578125 -0.65625 6.421875 -1 C 6.273438 -1.351562 6.039062 -1.660156 5.71875 -1.921875 C 5.394531 -2.160156 5.039062 -2.304688 4.65625 -2.359375 C 4.269531 -2.421875 3.898438 -2.378906 3.546875 -2.234375 C 3.191406 -2.085938 2.894531 -1.851562 2.65625 -1.53125 C 2.394531 -1.195312 2.242188 -0.84375 2.203125 -0.46875 C 2.160156 -0.09375 2.21875 0.269531 2.375 0.625 C 2.53125 0.988281 2.769531 1.289062 3.09375 1.53125 Z M 3.09375 1.53125 "/></g></g></g><g fill="#5e17eb" fill-opacity="1"><g transform="translate(106.147285, 45.377839)"><g/></g></g><g fill="#5e17eb" fill-opacity="1"><g transform="translate(19.954738, 74.071171)"><g><path d="M 4.671875 1.375 C 4.785156 1.914062 4.742188 2.367188 4.546875 2.734375 C 4.359375 3.097656 4.039062 3.332031 3.59375 3.4375 C 3.132812 3.53125 2.738281 3.445312 2.40625 3.1875 C 2.082031 2.9375 1.863281 2.539062 1.75 2 L 1.53125 0.953125 L 0.265625 1.21875 L 0.140625 0.625 L 4.328125 -0.265625 Z M 2.265625 1.875 C 2.335938 2.25 2.476562 2.515625 2.6875 2.671875 C 2.90625 2.835938 3.164062 2.890625 3.46875 2.828125 C 3.769531 2.753906 3.976562 2.601562 4.09375 2.375 C 4.207031 2.144531 4.226562 1.84375 4.15625 1.46875 L 3.9375 0.4375 L 2.046875 0.84375 Z M 2.265625 1.875 "/></g></g></g><g fill="#5e17eb" fill-opacity="1"><g transform="translate(21.858289, 81.684983)"><g><path d="M 0.84375 2.265625 C 0.632812 1.734375 0.625 1.257812 0.8125 0.84375 C 1 0.425781 1.375 0.101562 1.9375 -0.125 L 4.1875 -1.03125 L 4.421875 -0.46875 L 2.1875 0.421875 C 1.34375 0.765625 1.066406 1.3125 1.359375 2.0625 C 1.515625 2.425781 1.734375 2.660156 2.015625 2.765625 C 2.296875 2.878906 2.648438 2.847656 3.078125 2.671875 L 5.3125 1.78125 L 5.53125 2.34375 L 3.28125 3.25 C 2.707031 3.476562 2.210938 3.503906 1.796875 3.328125 C 1.378906 3.148438 1.0625 2.796875 0.84375 2.265625 Z M 0.84375 2.265625 "/></g></g></g><g fill="#5e17eb" fill-opacity="1"><g transform="translate(25.208928, 89.241767)"><g><path d="M 1.84375 3 L 2.46875 1.515625 C 2.394531 1.421875 2.34375 1.347656 2.3125 1.296875 L 1.765625 0.390625 L 0.65625 1.0625 L 0.328125 0.546875 L 3.984375 -1.6875 L 4.859375 -0.265625 C 5.148438 0.203125 5.265625 0.640625 5.203125 1.046875 C 5.140625 1.460938 4.914062 1.789062 4.53125 2.03125 C 4.238281 2.207031 3.953125 2.285156 3.671875 2.265625 C 3.390625 2.253906 3.125 2.144531 2.875 1.9375 L 2.171875 3.5625 Z M 2.765625 1 C 2.960938 1.332031 3.1875 1.539062 3.4375 1.625 C 3.6875 1.707031 3.945312 1.664062 4.21875 1.5 C 4.476562 1.34375 4.625 1.132812 4.65625 0.875 C 4.6875 0.625 4.601562 0.332031 4.40625 0 L 3.859375 -0.890625 L 2.21875 0.109375 Z M 2.765625 1 "/></g></g></g><g fill="#5e17eb" fill-opacity="1"><g transform="translate(29.557685, 95.778642)"><g><path d="M 1.203125 1.46875 C 0.992188 1.21875 0.828125 0.945312 0.703125 0.65625 C 0.578125 0.375 0.519531 0.113281 0.53125 -0.125 L 1.046875 -0.25 C 1.035156 -0.0390625 1.078125 0.1875 1.171875 0.4375 C 1.273438 0.6875 1.414062 0.914062 1.59375 1.125 C 1.820312 1.394531 2.035156 1.5625 2.234375 1.625 C 2.441406 1.6875 2.625 1.648438 2.78125 1.515625 C 2.894531 1.410156 2.953125 1.289062 2.953125 1.15625 C 2.960938 1.03125 2.941406 0.894531 2.890625 0.75 C 2.835938 0.613281 2.75 0.425781 2.625 0.1875 C 2.46875 -0.101562 2.359375 -0.347656 2.296875 -0.546875 C 2.234375 -0.742188 2.210938 -0.953125 2.234375 -1.171875 C 2.265625 -1.390625 2.382812 -1.582031 2.59375 -1.75 C 2.769531 -1.90625 2.960938 -1.992188 3.171875 -2.015625 C 3.390625 -2.035156 3.617188 -1.988281 3.859375 -1.875 C 4.109375 -1.769531 4.351562 -1.582031 4.59375 -1.3125 C 4.757812 -1.125 4.894531 -0.910156 5 -0.671875 C 5.101562 -0.441406 5.164062 -0.222656 5.1875 -0.015625 L 4.703125 0.15625 C 4.671875 -0.0625 4.609375 -0.265625 4.515625 -0.453125 C 4.429688 -0.640625 4.320312 -0.8125 4.1875 -0.96875 C 3.957031 -1.238281 3.738281 -1.394531 3.53125 -1.4375 C 3.332031 -1.488281 3.160156 -1.453125 3.015625 -1.328125 C 2.898438 -1.234375 2.835938 -1.113281 2.828125 -0.96875 C 2.816406 -0.832031 2.835938 -0.691406 2.890625 -0.546875 C 2.953125 -0.398438 3.046875 -0.21875 3.171875 0 C 3.316406 0.300781 3.421875 0.550781 3.484375 0.75 C 3.554688 0.945312 3.578125 1.144531 3.546875 1.34375 C 3.523438 1.550781 3.410156 1.742188 3.203125 1.921875 C 3.023438 2.078125 2.828125 2.164062 2.609375 2.1875 C 2.398438 2.21875 2.171875 2.175781 1.921875 2.0625 C 1.671875 1.945312 1.429688 1.75 1.203125 1.46875 Z M 1.203125 1.46875 "/></g></g></g><g fill="#5e17eb" fill-opacity="1"><g transform="translate(34.426485, 101.10287)"><g><path d="M 1.828125 1.59375 C 1.378906 1.21875 1.140625 0.800781 1.109375 0.34375 C 1.085938 -0.101562 1.269531 -0.554688 1.65625 -1.015625 L 3.234375 -2.890625 L 3.703125 -2.5 L 2.140625 -0.65625 C 1.554688 0.0507812 1.570312 0.664062 2.1875 1.1875 C 2.488281 1.4375 2.785156 1.539062 3.078125 1.5 C 3.378906 1.46875 3.679688 1.269531 3.984375 0.90625 L 5.546875 -0.9375 L 6 -0.546875 L 4.421875 1.328125 C 4.023438 1.796875 3.601562 2.046875 3.15625 2.078125 C 2.707031 2.117188 2.265625 1.957031 1.828125 1.59375 Z M 1.828125 1.59375 "/></g></g></g><g fill="#5e17eb" fill-opacity="1"><g transform="translate(40.940246, 106.178584)"><g><path d="M 3.5 1.453125 L 3.234375 1.90625 L 0.546875 0.328125 L 2.734375 -3.359375 L 5.34375 -1.8125 L 5.0625 -1.359375 L 2.984375 -2.59375 L 2.3125 -1.453125 L 4.171875 -0.359375 L 3.921875 0.078125 L 2.0625 -1.015625 L 1.34375 0.1875 Z M 3.5 1.453125 "/></g></g></g><g fill="#5e17eb" fill-opacity="1"><g transform="translate(47.489826, 109.706754)"><g/></g></g><g fill="#5e17eb" fill-opacity="1"><g transform="translate(52.132155, 111.535078)"><g><path d="M 2.609375 -0.796875 L 2.203125 0.625 L 1.609375 0.453125 L 2.015625 -0.984375 L 1.125 -4.140625 L 1.765625 -3.953125 L 2.46875 -1.40625 L 4.40625 -3.21875 L 4.984375 -3.046875 Z M 2.609375 -0.796875 "/></g></g></g><g fill="#5e17eb" fill-opacity="1"><g transform="translate(59.302725, 113.304573)"><g><path d="M 2.5625 0.328125 C 2.125 0.273438 1.742188 0.140625 1.421875 -0.078125 C 1.109375 -0.304688 0.867188 -0.597656 0.703125 -0.953125 C 0.535156 -1.304688 0.476562 -1.6875 0.53125 -2.09375 C 0.570312 -2.507812 0.707031 -2.875 0.9375 -3.1875 C 1.175781 -3.5 1.472656 -3.726562 1.828125 -3.875 C 2.191406 -4.03125 2.59375 -4.082031 3.03125 -4.03125 C 3.457031 -3.988281 3.832031 -3.851562 4.15625 -3.625 C 4.476562 -3.40625 4.71875 -3.117188 4.875 -2.765625 C 5.03125 -2.410156 5.085938 -2.023438 5.046875 -1.609375 C 4.992188 -1.191406 4.851562 -0.828125 4.625 -0.515625 C 4.40625 -0.210938 4.113281 0.0078125 3.75 0.15625 C 3.382812 0.3125 2.988281 0.367188 2.5625 0.328125 Z M 2.609375 -0.21875 C 2.921875 -0.1875 3.207031 -0.226562 3.46875 -0.34375 C 3.738281 -0.457031 3.957031 -0.628906 4.125 -0.859375 C 4.289062 -1.085938 4.394531 -1.359375 4.4375 -1.671875 C 4.46875 -1.984375 4.425781 -2.269531 4.3125 -2.53125 C 4.195312 -2.800781 4.019531 -3.019531 3.78125 -3.1875 C 3.550781 -3.363281 3.28125 -3.46875 2.96875 -3.5 C 2.65625 -3.539062 2.363281 -3.5 2.09375 -3.375 C 1.832031 -3.257812 1.613281 -3.082031 1.4375 -2.84375 C 1.269531 -2.613281 1.171875 -2.34375 1.140625 -2.03125 C 1.097656 -1.71875 1.132812 -1.429688 1.25 -1.171875 C 1.375 -0.910156 1.550781 -0.695312 1.78125 -0.53125 C 2.019531 -0.363281 2.296875 -0.257812 2.609375 -0.21875 Z M 2.609375 -0.21875 "/></g></g></g><g fill="#5e17eb" fill-opacity="1"><g transform="translate(67.86648, 113.899523)"><g><path d="M 2.421875 -0.125 C 1.847656 -0.0820312 1.390625 -0.210938 1.046875 -0.515625 C 0.710938 -0.828125 0.523438 -1.285156 0.484375 -1.890625 L 0.3125 -4.3125 L 0.921875 -4.359375 L 1.09375 -1.96875 C 1.15625 -1.050781 1.585938 -0.617188 2.390625 -0.671875 C 2.785156 -0.703125 3.078125 -0.832031 3.265625 -1.0625 C 3.453125 -1.300781 3.53125 -1.65625 3.5 -2.125 L 3.328125 -4.515625 L 3.921875 -4.5625 L 4.09375 -2.140625 C 4.132812 -1.523438 4.003906 -1.046875 3.703125 -0.703125 C 3.410156 -0.359375 2.984375 -0.164062 2.421875 -0.125 Z M 2.421875 -0.125 "/></g></g></g><g fill="#5e17eb" fill-opacity="1"><g transform="translate(76.085719, 113.007902)"><g><path d="M 3.421875 -0.84375 L 2.1875 -1.890625 C 2.082031 -1.859375 2 -1.832031 1.9375 -1.8125 L 0.90625 -1.5625 L 1.21875 -0.296875 L 0.625 -0.15625 L -0.390625 -4.3125 L 1.234375 -4.703125 C 1.765625 -4.835938 2.21875 -4.816406 2.59375 -4.640625 C 2.96875 -4.460938 3.207031 -4.148438 3.3125 -3.703125 C 3.394531 -3.378906 3.382812 -3.082031 3.28125 -2.8125 C 3.175781 -2.539062 2.988281 -2.316406 2.71875 -2.140625 L 4.046875 -1 Z M 1.796875 -2.328125 C 2.171875 -2.421875 2.4375 -2.570312 2.59375 -2.78125 C 2.75 -2.988281 2.789062 -3.242188 2.71875 -3.546875 C 2.644531 -3.847656 2.488281 -4.050781 2.25 -4.15625 C 2.019531 -4.269531 1.71875 -4.28125 1.34375 -4.1875 L 0.328125 -3.9375 L 0.78125 -2.078125 Z M 1.796875 -2.328125 "/></g></g></g><g fill="#5e17eb" fill-opacity="1"><g transform="translate(83.574188, 110.840911)"><g/></g></g><g fill="#5e17eb" fill-opacity="1"><g transform="translate(88.198549, 108.891875)"><g><path d="M -1.546875 -4.03125 L 0.03125 -4.9375 C 0.414062 -5.15625 0.800781 -5.273438 1.1875 -5.296875 C 1.582031 -5.316406 1.941406 -5.234375 2.265625 -5.046875 C 2.597656 -4.867188 2.867188 -4.59375 3.078125 -4.21875 C 3.285156 -3.851562 3.382812 -3.476562 3.375 -3.09375 C 3.375 -2.71875 3.265625 -2.363281 3.046875 -2.03125 C 2.828125 -1.707031 2.523438 -1.4375 2.140625 -1.21875 L 0.5625 -0.3125 Z M 1.828125 -1.65625 C 2.128906 -1.832031 2.359375 -2.039062 2.515625 -2.28125 C 2.679688 -2.53125 2.765625 -2.796875 2.765625 -3.078125 C 2.773438 -3.359375 2.703125 -3.632812 2.546875 -3.90625 C 2.390625 -4.1875 2.1875 -4.394531 1.9375 -4.53125 C 1.695312 -4.675781 1.425781 -4.742188 1.125 -4.734375 C 0.832031 -4.722656 0.535156 -4.628906 0.234375 -4.453125 L -0.765625 -3.890625 L 0.828125 -1.09375 Z M 1.828125 -1.65625 "/></g></g></g><g fill="#5e17eb" fill-opacity="1"><g transform="translate(95.413979, 104.425592)"><g><path d="M 2.71875 -2.234375 L 1.15625 -2.65625 C 1.070312 -2.570312 1.003906 -2.507812 0.953125 -2.46875 L 0.140625 -1.796875 L 0.96875 -0.796875 L 0.5 -0.40625 L -2.21875 -3.71875 L -0.9375 -4.78125 C -0.507812 -5.132812 -0.0859375 -5.304688 0.328125 -5.296875 C 0.742188 -5.296875 1.097656 -5.117188 1.390625 -4.765625 C 1.609375 -4.503906 1.722656 -4.234375 1.734375 -3.953125 C 1.753906 -3.671875 1.6875 -3.390625 1.53125 -3.109375 L 3.21875 -2.65625 Z M 0.609375 -2.859375 C 0.910156 -3.109375 1.082031 -3.363281 1.125 -3.625 C 1.175781 -3.882812 1.101562 -4.132812 0.90625 -4.375 C 0.707031 -4.613281 0.476562 -4.726562 0.21875 -4.71875 C -0.0390625 -4.71875 -0.320312 -4.59375 -0.625 -4.34375 L -1.421875 -3.6875 L -0.1875 -2.203125 Z M 0.609375 -2.859375 "/></g></g></g><g fill="#5e17eb" fill-opacity="1"><g transform="translate(101.292842, 99.211228)"><g><path d="M 2.0625 -3.15625 L 2.46875 -2.8125 L 0.421875 -0.484375 L -2.796875 -3.3125 L -0.796875 -5.59375 L -0.390625 -5.234375 L -1.984375 -3.40625 L -1 -2.546875 L 0.421875 -4.171875 L 0.8125 -3.828125 L -0.609375 -2.203125 L 0.421875 -1.28125 Z M 2.0625 -3.15625 "/></g></g></g><g fill="#5e17eb" fill-opacity="1"><g transform="translate(106.049838, 93.397912)"><g><path d="M 0.859375 -3.4375 L -0.34375 -1.5 L 0.328125 -0.53125 L 0 0 L -2.59375 -3.90625 L -2.28125 -4.421875 L 2.375 -3.796875 L 2.03125 -3.265625 Z M 0.34375 -3.5 L -1.90625 -3.828125 L -0.625 -1.9375 Z M 0.34375 -3.5 "/></g></g></g><g fill="#5e17eb" fill-opacity="1"><g transform="translate(110.039394, 86.535394)"><g><path d="M 1.703125 -4.296875 L -1.203125 -5.4375 L 0.640625 -3.03125 L 0.546875 -2.765625 L -2.4375 -2.28125 L 0.453125 -1.140625 L 0.234375 -0.59375 L -3.75 -2.171875 L -3.5625 -2.640625 L -0.109375 -3.203125 L -2.25 -5.953125 L -2.0625 -6.421875 L 1.921875 -4.84375 Z M 1.703125 -4.296875 "/></g></g></g><g fill="#5e17eb" fill-opacity="1"><g transform="translate(113.093837, 77.777146)"><g><path d="M 0.421875 -1.828125 C 0.359375 -1.515625 0.25 -1.222656 0.09375 -0.953125 C -0.0625 -0.679688 -0.234375 -0.476562 -0.421875 -0.34375 L -0.859375 -0.671875 C -0.679688 -0.796875 -0.519531 -0.972656 -0.375 -1.203125 C -0.226562 -1.429688 -0.128906 -1.675781 -0.078125 -1.9375 C -0.00390625 -2.289062 -0.0078125 -2.566406 -0.09375 -2.765625 C -0.175781 -2.960938 -0.316406 -3.082031 -0.515625 -3.125 C -0.660156 -3.15625 -0.785156 -3.128906 -0.890625 -3.046875 C -0.992188 -2.972656 -1.085938 -2.867188 -1.171875 -2.734375 C -1.253906 -2.609375 -1.351562 -2.429688 -1.46875 -2.203125 C -1.59375 -1.898438 -1.710938 -1.660156 -1.828125 -1.484375 C -1.953125 -1.304688 -2.101562 -1.164062 -2.28125 -1.0625 C -2.46875 -0.957031 -2.695312 -0.929688 -2.96875 -0.984375 C -3.1875 -1.035156 -3.375 -1.132812 -3.53125 -1.28125 C -3.695312 -1.4375 -3.804688 -1.644531 -3.859375 -1.90625 C -3.921875 -2.164062 -3.914062 -2.472656 -3.84375 -2.828125 C -3.789062 -3.078125 -3.707031 -3.316406 -3.59375 -3.546875 C -3.488281 -3.773438 -3.351562 -3.960938 -3.1875 -4.109375 L -2.75 -3.8125 C -2.894531 -3.65625 -3.015625 -3.484375 -3.109375 -3.296875 C -3.210938 -3.109375 -3.285156 -2.914062 -3.328125 -2.71875 C -3.398438 -2.375 -3.390625 -2.101562 -3.296875 -1.90625 C -3.210938 -1.71875 -3.078125 -1.609375 -2.890625 -1.578125 C -2.742188 -1.546875 -2.613281 -1.566406 -2.5 -1.640625 C -2.394531 -1.710938 -2.300781 -1.816406 -2.21875 -1.953125 C -2.132812 -2.085938 -2.039062 -2.269531 -1.9375 -2.5 C -1.789062 -2.8125 -1.660156 -3.050781 -1.546875 -3.21875 C -1.429688 -3.382812 -1.28125 -3.519531 -1.09375 -3.625 C -0.914062 -3.726562 -0.691406 -3.753906 -0.421875 -3.703125 C -0.203125 -3.660156 -0.0195312 -3.5625 0.125 -3.40625 C 0.28125 -3.257812 0.390625 -3.050781 0.453125 -2.78125 C 0.515625 -2.507812 0.503906 -2.191406 0.421875 -1.828125 Z M 0.421875 -1.828125 "/></g></g></g><g clip-path="url(#d219f67c75)"><g clip-path="url(#71639dd9b6)"><path fill="url(#af166c3545)" d="M 33.175781 40.070312 L 33.175781 93.636719 L 101.667969 93.636719 L 101.667969 40.070312 Z M 33.175781 40.070312 " fill-rule="nonzero"/></g></g></svg>